<?xml version="1.0" encoding="utf-8"?>
<!-- Generator: Adobe Illustrator 14.0.0, SVG Export Plug-In . SVG Version: 6.00 Build 43363)  -->
<!DOCTYPE svg PUBLIC "-//W3C//DTD SVG 1.1//EN" "http://www.w3.org/Graphics/SVG/1.1/DTD/svg11.dtd">
<svg version="1.1" id="Layer_1" xmlns="http://www.w3.org/2000/svg" xmlns:xlink="http://www.w3.org/1999/xlink" x="0px" y="0px"
	 width="250px" height="226px" viewBox="0 0 250 226" enable-background="new 0 0 250 226" xml:space="preserve">
<g>
	<path fill="#005480" d="M156.334,80.932c-1.832-1.247-3.907-2.357-6.203-2.202c-0.618,0.042-1.329,0.15-2.608,2.006
		c-1.279,1.854-3.171,8.298-4.082,13.289c-2.115,11.64-2.771,23.711-2.149,35.589c0.24,2.911,0.462,5.826,0.684,8.74
		c0.243,2.318-1.573,4.614-3.148,6.122c-0.334,0.321-2.581,2.09-3.772,2.009c-0.409-0.019-0.692-0.249-0.736-0.817
		c-0.368-3.522-0.655-7.107-0.84-10.715c-0.792-9.485-1.818-18.966-3.771-28.275c-2.435-11.591-6.397-22.631-11.714-33.207
		c-1.36-2.707,6.122-10.369,7.654-7.317c4.74,9.417,8.462,19.25,10.893,29.481c0.237-0.981,0.48-1.961,0.749-2.937
		c2.933-10.838,12.559-29.299,26.06-20.13C165.744,74.19,159.079,82.791,156.334,80.932 M185.302,41.855
		c-0.537,0.521-4.101,3.384-4.506,1.198c-0.137-0.741-0.424-1.227-1.741-1.796c0.075,0.036-1.16-0.341-1.797-0.444
		c-0.861-0.134-1.723-0.214-2.59-0.239c-5.174-0.161-10.365,0.792-15.398,1.903c-16.534,3.643-32.609,9.71-47.967,16.771
		c-3.392,1.563-6.771,3.186-10.135,4.86c0.942,3.566,1.835,7.142,2.69,10.723c5.382,22.631,9.816,45.762,11.878,68.956
		c0.209,2.343-1.551,4.599-3.148,6.125c-0.427,0.411-4.309,3.435-4.505,1.194c-1.991-22.388-6.197-44.739-11.327-66.596
		c-1.257-5.362-2.589-10.71-4.028-16.03c-16.185,8.685-31.661,18.866-45.252,31.107c-16.725,15.064-31.346,33.837-34.397,56.783
		c-0.222,2.122-1.829,4.213-3.476,5.639c-0.006,0.003-0.006,0.01-0.006,0.013c-0.237,0.202-0.478,0.393-0.718,0.577
		c-0.63,0.474-1.959,1.154-2.808,0.995c-0.521-0.084-0.861-0.471-0.736-1.42c0.542-5.102,1.129-10.209,1.866-15.282
		c9.242-63.384,27.249-99.674,36.899-116.871C53.747,12.825,60.527,7.09,64.687,5.48c6.166-2.387,11.682,1.658,15.339,6.357
		c5.972,7.668,9.801,17.021,13.086,26.085c2.431,6.716,4.562,13.545,6.49,20.43c18.59-9.719,38.288-18.021,58.61-23.216
		c6.846-1.754,14.041-3.399,21.148-3.39c2.949,0.003,8.381,0.21,9.09,3.987C188.865,37.961,186.769,40.453,185.302,41.855
		 M91.165,62.911c-1.382-4.812-2.877-9.591-4.518-14.317C83.483,39.511,80,29.977,74.396,22.069
		c-3.073-4.336-7.838-10.317-13.03-8.071C56.175,16.246,43.425,37.562,33.762,63.8c-9.507,25.82-12.44,37.36-17.161,66.305
		c5.669-9.9,12.933-18.973,20.827-27.098C53.039,86.947,71.638,73.822,91.165,62.911 M173.183,74.906
		c-1.554,22.017,0.549,44.06,4.256,65.767c0.378,2.199,3.988-0.696,4.509-1.195c1.488-1.426,3.529-3.875,3.148-6.125
		c-3.626-21.23-5.686-42.717-4.169-64.253c0.172-2.44-2.465-1.229-3.544-0.418C175.563,70.039,173.345,72.507,173.183,74.906
		 M244.735,121.097c1.18-4.178-1.604-31.836-8.013-45.872c-2.749-6.013-6.855-11.656-13.417-13.659
		c-7.94-2.421-16.556,2.947-22.547,7.531c-1.859,1.419-3.962,3.783-4.202,6.222c-0.247,2.457,2.518,1.21,3.547,0.424
		c5.286-4.041,11.576-7.381,18.297-5.045c5.738,1.987,9.255,8.465,11.461,13.657c4.041,9.495,5.919,20.125,6.681,30.646
		c-6.524-4.192-13.829-7.482-21.464-7.502c-7.71-0.019-14.294,4.685-17.82,11.398c-2.721,5.18-1.94,11.096,2.234,15.208
		c5.822,5.741,15.346,5.679,22.84,4.681c0.065-0.007,0.131-0.025,0.203-0.044c2.306-0.23,8.768-0.88,10.425-1.285
		c2.365-0.574,1.079-2.512,0.175-3.563c-1.461-1.691-3.566-4.063-5.926-3.757c-0.152-0.013-0.314-0.013-0.509,0.013
		c-1.821,0.243-3.726,0.387-5.632,0.387l-0.149-0.006c-0.021,0-0.041,0-0.065,0.006c-4.806-0.031-9.647-1.039-13.448-4.013
		c-1.685-1.316-2.939-2.998-3.626-5.021c-0.28-0.827-0.428-1.919-0.418-2.437c0-0.425-0.01-0.89,0.088-1.232
		c0.1-0.347,0.852-0.64,0.992-0.702c1.688-0.777,4.998-0.914,7.363-0.692c9.529,0.892,18.247,6.817,25.555,12.552
		C239.696,130.828,243.553,125.265,244.735,121.097 M234.164,153.463h0.955v-4.986h1.872v-0.955h-4.699v0.955h1.872V153.463z
		 M238.183,153.463h0.949v-4.986h0.031l1.959,4.986h0.649l1.959-4.986h0.025v4.986h0.955v-5.941h-1.474l-1.769,4.512l-1.772-4.512
		h-1.514V153.463z M5,198.787h1.931v-5.523h5.049c1.604,0,2.384,0.715,2.515,3.039c0.09,1.566,0.09,2.116,0.399,2.484h2.041
		c-0.437-0.512-0.508-1.108-0.621-3.539c-0.072-1.531-0.746-2.605-1.894-2.768v-0.034c1.423-0.449,2.187-1.622,2.187-3.207
		c0-1.663-0.948-3.464-3.554-3.464H5V198.787z M6.931,191.592v-4.138h5.448c1.547,0,2.296,0.836,2.296,2.078
		c0,0.905-0.459,2.06-2.353,2.06H6.931z M23.456,198.787H34.09v-1.676h-8.706v-4.209h8.275v-1.673h-8.275v-3.775h8.527v-1.679
		H23.456V198.787z M39.569,194.5c0,3.591,3.045,4.614,5.978,4.614c2.627,0,5.592-0.945,5.592-4.262c0-2.659-2.893-3.155-3.916-3.336
		l-3.189-0.549c-1.601-0.269-2.134-0.902-2.134-1.71c0-1.532,1.607-2.131,3.027-2.131c3.117,0,3.697,1.382,3.863,2.405h1.931
		c-0.181-3.133-2.933-4.084-5.538-4.084c-3.333,0-5.208,1.585-5.208,3.956c0,2.533,2.312,3.148,3.863,3.404l2.948,0.489
		c1.492,0.26,2.421,0.746,2.421,1.932c0,1.43-1.457,2.209-3.517,2.209c-1.962,0-4.156-0.599-4.187-2.938H39.569z M56.736,192.284
		c0,3.332,2.003,6.83,7.239,6.83c5.223,0,7.233-3.498,7.233-6.83s-2.01-6.836-7.233-6.836
		C58.739,185.448,56.736,188.952,56.736,192.284 M69.273,192.284c0,3.444-2.334,5.154-5.298,5.154c-2.977,0-5.308-1.71-5.308-5.154
		s2.331-5.157,5.308-5.157C66.939,187.127,69.273,188.84,69.273,192.284 M77.897,198.787h1.928v-5.523h5.045
		c1.607,0,2.39,0.715,2.515,3.039c0.09,1.566,0.09,2.116,0.402,2.484h2.041c-0.44-0.512-0.512-1.108-0.624-3.539
		c-0.065-1.531-0.739-2.605-1.891-2.768v-0.034c1.423-0.449,2.184-1.622,2.184-3.207c0-1.663-0.942-3.464-3.551-3.464h-8.05V198.787
		z M79.826,191.592v-4.138h5.451c1.544,0,2.29,0.836,2.29,2.078c0,0.905-0.456,2.06-2.349,2.06H79.826z M99.882,198.787h1.929
		v-11.333h4.917v-1.679H94.962v1.679h4.92V198.787z M131.733,198.787h2.531l-3.062-2.824c0.786-1.092,1.039-2.165,1.08-3.167h-1.713
		c-0.072,0.886-0.24,1.423-0.603,2.021l-3.441-3.188c1.909-0.771,2.512-2.01,2.512-3.029c0-1.545-1.255-2.824-3.292-2.824
		c-2.153,0-3.379,1.192-3.379,2.939c0,0.724,0.281,1.622,1.423,2.646c-2.421,0.833-3.385,2.253-3.385,3.869
		c0,1.735,1.22,3.885,5.133,3.885c1.822,0,3.65-0.603,4.63-1.804L131.733,198.787z M128.963,196.253
		c-0.762,1.023-2.06,1.336-3.333,1.336c-2.549,0-3.295-1.352-3.295-2.403c0-1.048,0.475-1.953,2.493-2.814L128.963,196.253z
		 M124.083,188.621c0-0.658,0.512-1.316,1.679-1.316c0.908,0,1.563,0.658,1.563,1.41c0,0.648-0.509,1.382-1.875,1.947
		C124.542,189.825,124.083,189.258,124.083,188.621 M160.165,190.462c-0.331-3.9-3.922-5.014-6.527-5.014
		c-4.443,0-6.809,3.011-6.809,6.792c0,5.07,3.551,6.874,6.833,6.874c3.714,0,6.188-2.424,6.503-5.305h-1.932
		c-0.549,2.534-2.28,3.629-4.556,3.629c-3.591,0-4.92-2.53-4.92-4.992c0-3.551,1.953-5.319,5.029-5.319
		c2.733,0,4.153,1.528,4.446,3.335H160.165z M176.64,198.787h2.203l-5.885-13.012h-2.2l-5.885,13.012h2.075l1.657-3.788h6.381
		L176.64,198.787z M174.274,193.32h-4.942l2.446-5.754L174.274,193.32z M183.542,194.5c0,3.591,3.042,4.614,5.975,4.614
		c2.618,0,5.589-0.945,5.589-4.262c0-2.659-2.896-3.155-3.913-3.336l-3.188-0.549c-1.604-0.269-2.128-0.902-2.128-1.71
		c0-1.532,1.598-2.131,3.021-2.131c3.12,0,3.694,1.382,3.862,2.405h1.932c-0.185-3.133-2.933-4.084-5.538-4.084
		c-3.336,0-5.214,1.585-5.214,3.956c0,2.533,2.318,3.148,3.865,3.404l2.952,0.489c1.491,0.26,2.421,0.746,2.421,1.932
		c0,1.43-1.46,2.209-3.52,2.209c-1.959,0-4.152-0.599-4.188-2.938H183.542z M201.633,198.787h1.929v-13.012h-1.929V198.787z
		 M221.315,198.787h2.24v-13.012h-1.929v10.347h-0.04l-8.365-10.347h-2.234v13.012h1.932V188.44h0.031L221.315,198.787z
		 M230.245,192.284c0,3.332,2.003,6.83,7.239,6.83c5.223,0,7.227-3.498,7.227-6.83s-2.004-6.836-7.227-6.836
		C232.248,185.448,230.245,188.952,230.245,192.284 M242.779,192.284c0,3.444-2.331,5.154-5.295,5.154
		c-2.977,0-5.311-1.71-5.311-5.154s2.334-5.157,5.311-5.157C240.448,187.127,242.779,188.84,242.779,192.284 M51.978,220.896h9.835
		v-1.679h-7.904v-11.332h-1.931V220.896z M78.853,220.896h2.209l-5.888-13.011h-2.206l-5.885,13.011h2.084l1.654-3.788h6.372
		L78.853,220.896z M76.484,215.43h-4.933l2.437-5.757L76.484,215.43z M85.754,216.612c0,3.592,3.039,4.615,5.972,4.615
		c2.621,0,5.592-0.952,5.592-4.269c0-2.655-2.896-3.148-3.913-3.329l-3.188-0.553c-1.604-0.269-2.131-0.904-2.131-1.713
		c0-1.525,1.598-2.128,3.023-2.128c3.114,0,3.701,1.386,3.866,2.405h1.925c-0.181-3.139-2.927-4.081-5.535-4.081
		c-3.338,0-5.21,1.585-5.21,3.953c0,2.531,2.312,3.155,3.856,3.404l2.955,0.493c1.495,0.253,2.428,0.749,2.428,1.935
		c0,1.417-1.46,2.203-3.517,2.203c-1.972,0-4.156-0.603-4.19-2.937H85.754z M119.459,218.887l-4.681-11.001h-2.187l5.794,13.011
		h2.06l5.704-13.011h-2.078L119.459,218.887z M131.974,220.896h10.637v-1.679h-8.711v-4.203h8.274v-1.675h-8.274v-3.775h8.53v-1.679
		h-10.456V220.896z M156.059,215.561h4.263c-0.2,2.31-2.047,3.988-4.864,3.988c-2.712,0-5.067-1.423-5.067-5.102
		c0-2.771,1.532-5.211,4.977-5.211c2.456,0,3.807,0.948,4.406,2.755h2.04c-0.817-3.594-3.856-4.431-6.537-4.431
		c-3.373,0-6.817,2.022-6.817,7.049c0,2.861,1.657,6.618,6.868,6.618c2.752,0,4.14-1.189,4.995-2.19l0.327,1.859h1.383v-7.011
		h-5.973V215.561z M179.67,220.896h2.199l-5.878-13.011h-2.206l-5.882,13.011h2.071l1.66-3.788h6.378L179.67,220.896z
		 M177.302,215.43h-4.937l2.44-5.757L177.302,215.43z M186.568,216.612c0,3.592,3.039,4.615,5.979,4.615
		c2.621,0,5.585-0.952,5.585-4.269c0-2.655-2.893-3.148-3.913-3.329l-3.188-0.553c-1.598-0.269-2.128-0.904-2.128-1.713
		c0-1.525,1.598-2.128,3.023-2.128c3.117,0,3.7,1.386,3.856,2.405h1.938c-0.184-3.139-2.933-4.081-5.538-4.081
		c-3.336,0-5.211,1.585-5.211,3.953c0,2.531,2.31,3.155,3.86,3.404l2.948,0.493c1.491,0.253,2.425,0.749,2.425,1.935
		c0,1.417-1.461,2.203-3.511,2.203c-1.969,0-4.153-0.603-4.196-2.937H186.568z"/>
</g>
</svg>
