<?xml version="1.0" encoding="utf-8"?>
<!-- Generator: Adobe Illustrator 12.0.0, SVG Export Plug-In . SVG Version: 6.00 Build 51448)  -->
<!DOCTYPE svg PUBLIC "-//W3C//DTD SVG 1.1//EN" "http://www.w3.org/Graphics/SVG/1.1/DTD/svg11.dtd" [
	<!ENTITY ns_svg "http://www.w3.org/2000/svg">
	<!ENTITY ns_xlink "http://www.w3.org/1999/xlink">
]>
<svg  version="1.1" id="Layer_1" xmlns="&ns_svg;" xmlns:xlink="&ns_xlink;" width="239.334" height="100.324"
	 viewBox="0 0 239.334 100.324" overflow="visible" enable-background="new 0 0 239.334 100.324" xml:space="preserve">
<g>
	<path fill="#E53E85" d="M1.663,17.283C4.525,15.234,18.826,6.799,34.347,2.44c10.464-2.938,22.74-4.357,28.729,2.449
		c5.992,6.808,6.671,17.022-2.173,29.819c0.4,3.001-0.275,3.126-2.316,3.552c-6.54,11.158-27.645,31.856-40.852,41.11
		c-1.431,1.007-3.406,0.956-5.313,0.818c-1.904-0.141-4.332-1.349-1.904-3.409c11.575-9.794,27.094-25.328,32.135-34.576
		c0.975-1.8,0.543-2.322-0.68-2.053c-1.23,0.277-11.847,1.643-15.527,1.369c-3.673-0.277-4.628-0.54-6.258-2.316
		c-1.633-1.766-2.453-2.863,0.406-3.543c2.857-0.674,22.877-4.351,25.87-5.03c3.002-0.685,4.498-0.823,5.856-4.088
		c0.936-2.248,4.493-7.625,1.357-12.388c-3.124-4.772-9.938-3.548-14.97-2.73c-3.364,0.546-20.292,5.72-28.731,10.619
		c-1.96,1.146-2.997,0.957-6.805-0.805C-0.48,19.535-0.972,19.172,1.663,17.283"/>
	<path fill="#E53E85" d="M82.962,15.234c2.461-2.015,4.895-2.303,6.258,1.096c1.361,3.398,0.542,4.764,0.41,5.989
		c-0.134,1.23-0.547,3.27-2.316,5.714C85.546,30.49,64.438,53.5,61.17,58.125c-3.268,4.635-5.583,8.722-5.992,10.215
		c-0.402,1.503-0.402,3.275,2.314,1.503c3.02-1.969,6.813-6.404,8.58-7.903c2.049-2.853,6.398-8.438,11.033-11.435
		c4.626-2.992,10.377-6.014,14.699-1.912c2.729,2.59,0,7.224-2.448,8.712c2.175,3.683,1.905,5.722-0.272,6.823
		c-0.813,1.765-0.276,2.311,1.222,1.081c1.499-1.221,6.531-5.175,9.943-9.393c1.159-1.443,3.469-2.392,4.499,0.948
		c0.542,1.775,0.129,3.27,2.311,1.631c1.872-1.397,2.677-3.938,5.039-2.177c1.082,0.827,1.357,3.27,1.357,3.815
		c0,0.545,0.049,1.18,1.361,0.407c1.628-0.953,2.872-2.046,3.679-2.452c0.82-0.401,2.066-1.637,3.546,0.814
		c1.222,2.049,1.222,2.869-0.137,3.955c-1.374,1.086-2.187,2.177-2.862,3.134c-0.691,0.953-1.474,3.076,0.676,1.906
		c2.998-1.642,13.894-11.843,15.125-13.341c1.221-1.499,2.574-1.499,3.661,0.407c1.102,1.899,1.37,4.082,0,5.169
		c-1.354,1.086-3.403,4.094-4.074,5.175c-0.831,1.313-0.684,2.034,1.364,0.948c2.04-1.088,9.079-6.916,11.264-8.827
		c2.178-1.909,3.085-2.281,4.093-0.754c0.54,0.813,1.304,2.782,1.241,3.597c-0.125,2.043,0.957,1.22,1.779,0.539
		c0.818-0.678,2.521-1.913,3.95-2.861c1.626-1.086,2.619-1.067,3.533,0.417c1.363,2.174,1.239,2.585,0,3.811
		c-1.222,1.221-2.581,2.312-3.404,3.944c-0.601,1.221-0.813,2.862,0.823,1.776c1.632-1.087,4.623-3.409,5.854-4.361
		c1.638-2.45,3.682-5.85,8.573-8.852c4.906-2.991,10.568-4.691,12.954-1.354c1.365,1.915,0.664,5.036-0.424,6.257
		c-1.089,1.224-3.135,3.864-5.714-1.616c-3.542,1.496-5.73,4.395-7.218,6.518c-0.959,1.365-0.959,2.725,1.492,1.915
		c2.451-0.833,5.363-2.723,6.399-3.686c1.638-1.499,3.314-0.665,3.42,0.848c0.148,2.038,0.397,4.332,0.397,4.332
		s3.259-2.322,4.768-2.322c1.22-1.221,3.671-3.672,6.806-6.122c2.938-2.309,6.123-2.59,7.76-1.767
		c1.633,0.808,1.499,2.585,1.092,3.805c6.132-0.681,22.053-1.497,26.13-1.497c4.095,0,5.321,1.092,6.823,3.27
		c1.806,2.62,1.884,5.358-2.729,4.361c-10.076-2.185-23.149-0.814-30.632,0.54c-1.64,4.634-4.455,7.982-7.769,10.35
		c-2.859,2.053-10.616,2.728-10.221-6.673c0.073-1.523-1.35-0.407-2.174,0.272c-6.132,5.12-18.248,20.565-20.281,26.146
		c-0.979,2.689-1.633,2.585-2.58,1.226c-0.964-1.355-2.461-3.133-2.867-5.037c-0.428-1.999-0.144-3.813,1.498-6.262
		c1.628-2.454,9.02-12.218,10.216-13.479c1.065-1.13,0.271-2.178-0.959-1.771c-2.067,0.685-5.448-0.283-5.993-4.64
		c-2.311,1.51-4.762,4.232-7.759,5.587c-2.466,1.117-5.637,0.666-6.539-3.264c-0.397-1.787-0.317-2.144-2.173-0.272
		c-0.675,0.684-3.524,3.015-4.768,4.359c-0.571,0.621-1.205,1.23-2.293,0.046c-0.817-0.908-1.86-2.996-1.924-4.946
		c-1.498,1.359-3.141,2.986-6.267,3.814c-2.797,0.72-5.04,0.263-5.994-5.041c-2.583,1.9-6.807,5.304-8.711,6.529
		c-1.905,1.231-6.128,1.493-6.128-3.811l-0.542-0.818c-1.78,0.263-3.403,3.141-4.902,4.897c-0.815,0.968-2.314,2.725-4.354-0.406
		c-1.148-1.221-1.022-3.465-1.094-4.352c-2.057,0.689-3.124,2.843-4.639,5.105c-1.285,1.929-3.66,0.649-4.208-4.014
		c-0.552,0.129-0.819,0.129-1.225,0c-0.413,0.54-3.462,3.437-5.585,4.758c-2.183,1.363-5.58,0-5.989-5.171
		c-1.637,1.354-3.403,2.322-5.995,3.811c-2.579,1.493-6.666,0.551-8.032-3.269c-2.408,2.094-4.958,5.074-9.535,8.036
		c-1.967,1.271-10.613-0.545-8.576-13.475c1.097-6.95,8.449-16.749,11.304-20.704C60.997,41.142,73.149,23.266,82.962,15.234
		 M196.928,66.158c-0.785,0.788-1.37,2.996-1.37,4.093c0,1.364,1.093,1.904,2.449,0.684c1.361-1.225,1.043-3.026,1.228-3.819
		C199.518,65.893,198.152,64.936,196.928,66.158 M86.906,56.502c0.271-1.772-0.979-3.423-2.588-2.313
		c-2.994,2.029-7.901,8.837-8.715,10.617c-0.816,1.762-0.36,2.511,1.226,1.498C80.639,63.845,84.454,59.086,86.906,56.502"/>
	<path fill="#E53E85" d="M143.187,40.104c-1.604,0.889-3.88,3.226-4.094,5.92c-0.21,2.699,1.19,2.699,2.804,3.661
		c1.606,0.979,2.896,0.758,4.297-0.208c1.409-0.972,3.562-3.13,3.016-5.71c-0.535-2.585-2.043-4.302-3.109-4.302
		C145.012,39.464,144.153,39.569,143.187,40.104"/>
	<path fill="#E53E85" d="M211.835,81.562c-1.884,0-3.249-1.469-3.249-3.359c0-1.866,1.365-3.328,3.249-3.328
		c1.872,0,3.221,1.462,3.221,3.328C215.056,80.093,213.707,81.562,211.835,81.562 M211.835,82.063c2.124,0,3.841-1.722,3.841-3.86
		c0-2.104-1.717-3.824-3.841-3.824c-2.128,0-3.854,1.721-3.854,3.824C207.98,80.341,209.707,82.063,211.835,82.063 M212.455,78.381
		c0.766-0.016,1.341-0.337,1.341-1.181c0-0.704-0.383-1.132-1.523-1.132h-1.865v4.293h0.521v-1.98h0.968l1.224,1.98h0.631
		L212.455,78.381z M210.929,77.964v-1.528h1.23c0.535,0,1.081,0.086,1.081,0.754c0,0.88-0.893,0.774-1.514,0.774H210.929"/>
</g>
</svg>
