<?xml version="1.0" encoding="UTF-8" standalone="no"?>
<svg
   xmlns:dc="http://purl.org/dc/elements/1.1/"
   xmlns:cc="http://creativecommons.org/ns#"
   xmlns:rdf="http://www.w3.org/1999/02/22-rdf-syntax-ns#"
   xmlns:svg="http://www.w3.org/2000/svg"
   xmlns="http://www.w3.org/2000/svg"
   xmlns:sodipodi="http://sodipodi.sourceforge.net/DTD/sodipodi-0.dtd"
   xmlns:inkscape="http://www.inkscape.org/namespaces/inkscape"
   viewBox="0 0 625 159"
   class="injected-svg"
   version="1.1"
   id="svg945"
   sodipodi:docname="horseshoe vegas.svg"
   width="625"
   height="159"
   inkscape:version="0.92.5 (2060ec1f9f, 2020-04-08)">
  <clipPath
     id="b-37">
    <path
       d="m 29.613173,0.3115202 c 0,0 0.163889,-0.54262582 1.743564,-0.19556565 h -1.377223 c -0.07024,0.15975786 -0.23826,0.14047674 -0.366341,0.19556565 z m -9.787924,42.9831268 0.111555,0.110178 0.198321,-0.181793 c -0.02705,0.0072 -0.05472,0.01177 -0.08263,0.01377 l 0.29748,-0.267181 c 0.03168,-0.02204 0.06335,-0.04407 0.09641,-0.06473 0,0 0.0069,0 0.0124,0.01239 0.103292,-0.09916 0.207961,-0.19832 0.309875,-0.300234 -0.0083,0 -0.01515,-0.01102 -0.01377,-0.0124 0.0099,-0.0273 0.0223,-0.05359 0.03719,-0.0785 0.0124,0.0083 0.03581,0.02204 0.03443,0.02617 v 0.01239 l 0.241014,-0.242391 c -0.03305,-0.203829 0.214847,-0.296103 0.334666,-0.413167 0.762535,-0.774599 1.478565,-1.593642 2.144336,-2.452834 0.292889,-0.383786 0.577515,-0.774917 0.853878,-1.173394 0.420053,-0.615619 0.815316,-1.251896 1.177526,-1.912963 0.38149,-0.698252 0.800166,-1.377222 1.151358,-2.090624 0.01102,-0.02341 0.02203,-0.04545 0.03168,-0.06748 0.108801,-0.224487 0.210715,-0.451729 0.301612,-0.688611 h 0.01377 l 0.14874,-0.333288 c -0.01653,-0.242392 0.137722,-0.348438 0.18868,-0.484783 0,0.01377 0,0.02479 0.0083,0.03719 0.03581,-0.07988 0.07024,-0.161135 0.106046,-0.243768 l -0.02066,0.01515 c -0.04132,-0.228619 0.128082,-0.353946 0.202452,-0.535739 0.0049,0.02228 0.0086,0.0448 0.01102,0.06748 0.115687,-0.275444 0.23321,-0.562366 0.352569,-0.860764 -0.0303,-0.267181 0.147363,-0.429693 0.217602,-0.625259 0.0036,0.01679 0.0059,0.03383 0.0069,0.05096 0.03168,-0.07988 0.06335,-0.162512 0.09365,-0.243768 -0.01652,0.01576 -0.03399,0.03048 -0.05233,0.04407 0.02749,-0.202336 0.09113,-0.397646 0.187472,-0.576748 l 0.07833,-0.131145 c 0.0064,-0.212145 0.08958,-0.414756 0.234128,-0.57017 0.294726,-0.852501 0.581188,-1.764223 0.838729,-2.717261 0.01869,-0.113063 0.04773,-0.224168 0.08676,-0.331911 0.119359,-0.459074 0.230455,-0.926871 0.333288,-1.40339 0.01449,-0.203299 0.0557,-0.403803 0.122573,-0.596337 0.314264,-1.565655 0.480722,-3.157375 0.497177,-4.754174 v -0.497177 c -0.02479,-2.065835 -0.260295,-4.094484 -0.926871,-6.080439 0,-0.09526 0.02487,-0.199124 -0.04176,-0.275732 l -0.05189,-0.04241 c 0,-0.157921 0.04353,-0.329989 -0.121875,-0.410771 l -0.07231,-0.02581 c -0.03912,-0.530196 -0.290352,-1.022226 -0.696875,-1.364828 l -0.07575,-0.100538 C 28.689056,10.278482 28.643608,10.027828 28.337864,9.9534578 28.257985,9.509992 28.118886,9.102334 27.676797,8.8819784 27.516505,8.6551206 27.404475,8.3977801 27.347641,8.125883 27.310456,7.9757657 27.28842,7.8132534 27.36279,7.7127161 26.71825,5.951248 27.014353,4.0506804 27.350395,2.9158487 c -0.03967,0.0482 -0.08197,0.094177 -0.126704,0.1377223 0.04667,-0.3522029 0.184677,-0.6849618 0.398921,-0.9658228 l 0.113406,-0.1359555 c 0.157003,-0.2299962 0.608732,-0.6266364 1.030163,-0.97231938 -0.02653,0.0474594 -0.04866,0.0972471 -0.06611,0.14874008 0.880045,-0.7147787 1.823443,-1.12105946 2.951389,-0.84286043 l -0.01377,-0.0316761 v -0.0702384 c 0.147363,0.037185 0.304367,0.0826334 0.473765,0.13772229 1.904699,0.5949603 4.229452,3.13318214 4.94423,3.95400694 0.0096,-0.016527 0.01653,-0.033053 0.02755,-0.04958 0.74583,0.7822385 1.387423,1.6576002 1.908831,2.6043285 0.993149,1.8889617 1.745032,3.8952188 2.237987,5.9716388 0.633522,2.594688 0.567416,5.204525 0.491668,7.822626 -0.03719,1.089383 -0.318138,2.173258 -0.466878,3.261264 -0.182247,1.507066 -0.475941,2.998552 -0.878668,4.462202 -0.550889,1.888173 -1.119683,3.772214 -1.859251,5.592902 -0.42143,1.038426 -0.884636,2.058948 -1.389618,3.061567 -0.935135,2.03829 -2.308226,4.608188 -3.35767,6.453666 0.0097,0.107672 -0.01851,0.215357 -0.07988,0.304367 -0.20364,0.389053 -0.429416,0.766112 -0.676216,1.129322 -0.161135,0.22311 -0.327779,0.442089 -0.497177,0.658313 l -0.01515,0.02341 c -0.845364,1.252688 -5.231312,5.303914 -7.179091,7.072805 l -0.175279,0.158992 -0.04132,0.02892 -0.413167,0.375982 c -0.0179,0.09778 -0.154249,0.152871 -0.242391,0.216224 -0.08633,0.073 -0.178446,0.138866 -0.275445,0.196943 -1.325525,0.941962 -2.774726,1.696455 -4.306576,2.242119 -0.786394,0.275444 -1.528717,0.688611 -2.341279,0.919984 -1.343085,0.400813 -2.721603,0.671536 -4.116519,0.80843 C 10.624023,58.142487 7.4812005,56.689517 5.488359,55.496842 4.8043392,55.155696 4.1685041,54.725477 3.5974319,54.217402 l -0.012395,-0.0083 -0.031676,-0.0303 C 3.4542007,54.090698 3.3550407,54.001178 3.2586351,53.903395 2.5025397,53.17209 1.8731488,52.366415 1.4682453,51.405113 1.1979739,50.750821 1.0204327,50.061979 0.94076891,49.35856 0.84151586,48.427524 0.69209952,47.502522 0.49317146,46.587587 -0.00538323,44.451514 -0.0577177,42.300292 0.04144234,40.11464 0.13569031,38.286023 0.36168188,36.466584 0.71765879,34.670477 1.0807007,32.701387 1.6001829,30.764382 2.2711662,28.877878 2.665052,27.788494 2.9997172,26.674321 3.5106669,25.633141 3.6194675,25.411408 3.758567,25.050575 3.9568871,25.017522 c 0.2878396,-0.603224 0.5371169,-1.078366 0.7010064,-1.36896 1.4818919,-2.626364 1.9033221,-3.432039 3.330125,-6.997669 0.064598,-0.237404 0.2253364,-0.437079 0.4434658,-0.550889 0.096406,-0.05784 0.2602951,-0.151495 0.3084979,-0.0785 0.065544,0.123146 0.1737663,0.218146 0.3043663,0.267181 0.165349,-0.03579 0.327486,-0.08508 0.4847825,-0.147363 0.1111166,-0.08363 0.2421418,-0.136798 0.3801135,-0.154249 0.031676,0 0.063352,-0.0083 0.095028,-0.01239 v 0.0482 c 0.360832,-0.03305 0.601846,0.111555 0.702384,0.437957 0.102183,0.157511 0.120707,0.355094 0.04958,0.528854 -0.02341,0.47101 -0.18868,1.114173 -0.512327,1.928112 -0.137723,0.42143 -0.3360427,0.826333 -0.4434661,1.256027 -0.019281,0.07712 -0.030299,0.242391 -0.1652668,0.221733 -0.9309174,2.168464 -1.7086597,4.399526 -2.3275067,6.676777 -0.03948,0.199238 -0.08753,0.395416 -0.1429251,0.590165 l -0.088448,0.291257 c -0.117064,0.459993 -0.2272418,0.90759 -0.3305335,1.346924 -0.085732,0.472388 -0.1823099,0.94314 -0.2821586,1.413418 L 6.161821,32.124681 c -0.1976315,0.940987 -0.3780477,1.884729 -0.4806508,2.840522 -0.1670698,1.757959 -0.1924006,3.526513 -0.075747,5.288536 0.075835,1.210858 0.2940214,2.408569 0.6500492,3.568385 0.1962808,0.678069 0.5274651,1.309521 0.9736966,1.856496 0.1308362,0.158381 0.3153841,0.275445 0.358078,0.501309 h -0.011018 l 0.020658,0.01928 v -0.01377 c 0.056466,0.0179 0.1211956,0.02479 0.1211956,0.106046 0.6287898,0.522573 1.3778258,0.870797 2.1773895,1.019145 l 0.084011,-0.02341 c 0.093738,-0.01351 0.1885261,0.0164 0.2575411,0.08126 0.04132,0.0069 0.08401,0.01239 0.126704,0.01653 l 0.301612,0.0303 c 0.817288,0.04549 1.637083,-0.0072 2.441816,-0.157003 1.813803,-0.304367 3.802513,-1.370337 5.732002,-2.915581 l -0.03305,0.01239 c 0.168701,-0.253903 0.395879,-0.463606 0.662445,-0.611487 z"
       id="path884"
       inkscape:connector-curvature="0" />
  </clipPath>
  <radialGradient
     id="c-41"
     cx="20.265833"
     cy="28.85594"
     gradientTransform="matrix(0.37685985,-0.92627029,0.47260664,0.19228347,-1.009055,42.079058)"
     gradientUnits="userSpaceOnUse"
     r="30.041374">
    <stop
       offset="0"
       stop-color="#fefad7"
       id="stop887" />
    <stop
       offset=".759769949"
       stop-color="#fef7cf"
       id="stop889" />
    <stop
       offset=".927892246"
       stop-color="#fedd8f"
       id="stop891" />
    <stop
       offset="1"
       stop-color="#fff"
       id="stop893" />
  </radialGradient>
  <clipPath
     id="d-38">
    <path
       d="m 24.285099,53.014819 c 0.130836,-0.02066 0.29748,-0.18868 0.388376,-0.02066 0.0909,0.168022 -0.107423,0.235505 -0.221732,0.318139 -1.40208,1.03234 -2.947614,1.854058 -4.58753,2.439062 -0.789149,0.275444 -1.531472,0.691366 -2.341279,0.919985 -1.343085,0.400812 -2.721604,0.671535 -4.116519,0.808429 -0.331911,-0.07988 -0.824957,0.103292 -0.846992,-0.118441 -0.03168,-0.333288 0.455861,-0.241014 0.699629,-0.294725 0.740946,-0.165267 1.466742,-0.393886 2.221461,-0.520591 0.565588,-0.08346 1.119973,-0.23037 1.652667,-0.437957 1.295967,-0.54538 2.652531,-0.926871 3.91269,-1.559016 0.98196,-0.491669 1.983201,-0.943398 2.974802,-1.413031 0.08244,-0.05182 0.17135,-0.09257 0.264427,-0.121195 z m 6.69468,-29.201258 c 0.112581,0.655223 0.07919,1.327216 -0.09778,1.968052 -0.405821,1.713265 -0.864896,3.41184 -1.377223,5.095725 -0.253409,0.829088 -0.603223,1.638895 -0.889686,2.456965 -0.433825,1.239501 -0.973696,2.429422 -1.468119,3.640001 -0.315384,0.772622 -0.680348,1.514945 -1.305608,2.108528 0.378737,-0.959925 0.743701,-1.926735 1.147227,-2.877019 0.108801,-0.257541 0.1391,-0.527476 0.229996,-0.785017 0.02617,-0.07162 0.04407,-0.17353 -0.04682,-0.209338 -0.0909,-0.03581 -0.157004,0.02892 -0.192811,0.101915 -0.648672,1.377223 -1.651291,2.538222 -2.406009,3.856224 -0.520652,0.871525 -1.08607,1.715515 -1.693984,2.528581 -0.546757,0.762982 -0.908967,1.64165 -1.490155,2.374332 -0.358078,0.448975 -0.749209,0.862142 -0.973697,1.413031 -0.222072,0.544102 -0.258854,1.146177 -0.104669,1.713265 0.09227,0.333288 0.455861,0.705139 0.849747,0.911722 0.276822,0.144608 0.589451,0.227242 0.667953,0.625259 0.05096,0.253409 0.316761,0.150118 0.499932,0.12395 0.391131,-0.05371 0.590828,0.144609 0.391131,0.480651 -0.274067,0.459993 -0.231373,0.962679 -0.329156,1.446084 -0.03651,0.201092 -0.154024,0.378356 -0.325025,0.490291 -0.512327,0.395263 -0.983337,0.841484 -1.459856,1.276686 -0.06886,0.05784 -0.07299,0.177662 -0.101915,0.267181 -0.716155,0.656936 -1.565902,1.127946 -2.423912,1.541113 -1.138978,0.561785 -2.328139,1.015501 -3.551858,1.355187 -2.406008,0.629391 -4.8560877,0.878668 -7.3226939,0.286463 C 5.7122971,55.642681 4.3468795,54.880676 3.256282,53.799836 2.4988094,53.06853 1.8694185,52.26561 1.4658922,51.301553 1.1956209,50.647261 1.0180796,49.95842 0.93841586,49.255 0.83916281,48.323965 0.68974648,47.398963 0.49081841,46.484028 -0.00773628,44.343823 -0.05456186,42.192601 0.0390893,40.01108 0.13333727,38.182464 0.35932883,36.363025 0.71530575,34.566918 1.0744195,32.592971 1.5906847,30.650875 2.2591726,28.759169 2.6558128,27.669786 2.990478,26.558367 3.4986732,25.514432 3.626755,25.251382 3.805794,24.788635 4.0633346,24.916717 c 0.2575407,0.128082 -0.1280817,0.442089 -0.2341279,0.66933 -0.8725384,1.928464 -1.5810992,3.926992 -2.1181688,5.974393 -0.3787363,1.39375 -0.5619069,2.819176 -0.84286041,4.243224 -0.27131291,1.306985 -0.16526675,2.641514 -0.35532351,3.95263 -0.15837753,1.108545 -0.15837753,2.233975 0,3.34252 0.29197126,2.074098 0.80705262,4.062807 1.80691642,5.930322 0.4420886,0.826333 1.1072873,1.458479 1.6030875,2.226969 0.2189784,0.338797 0.4902914,0.195566 0.6886115,-0.01515 C 5.2477463,50.568871 5.2656502,49.487751 4.7340422,48.727524 4.3112348,48.120169 3.9435162,47.474251 3.5578938,46.843483 3.2920898,46.40828 2.8803002,46.057089 2.8376062,45.495182 c -0.019281,-0.242392 -0.084011,-0.479274 0.020658,-0.716156 0.028922,0.01239 0.078502,0.0179 0.085388,0.03719 0.4062808,1.11555 1.4805146,1.619614 2.224215,2.425289 0.2644268,0.279577 0.4668786,0.658313 0.9640561,0.65005 0.161135,-0.0014 0.2506545,0.27269 0.3484373,0.442088 0.2024518,0.342929 0.5357398,0.502686 0.8841772,0.688612 0.7340598,0.391131 1.6444041,0.476519 2.1608627,1.271176 0.2864624,0.444843 0.2726901,0.959925 0.4999323,1.408899 0.289216,0.571548 0.535739,1.216088 0.91723,1.673326 0.462747,0.561907 1.232615,0.895195 1.977692,1.122437 0.363587,0.112932 0.802921,0.162512 0.639032,0.746455 -0.04132,0.145985 0.101914,0.181793 0.224487,0.181793 0.532985,0 1.04118,-0.03168 1.559016,-0.253409 0.765736,-0.329156 1.582429,-0.56053 2.280681,-1.017768 0.804299,-0.528853 1.563148,-1.138963 2.319244,-1.742187 0.151699,-0.14979 0.254864,-0.341726 0.296103,-0.550889 l 0.08773,-0.318023 c 0.203506,-0.742718 0.365889,-1.488205 -0.199288,-2.196786 -0.05096,-0.06197 -0.101915,-0.162512 -0.16389,-0.172153 -0.608732,-0.0964 -0.439334,-0.498554 -0.345683,-0.864896 0.05285,-0.154861 0.05042,-0.323249 -0.0069,-0.476519 -0.193609,-0.48033 -0.276005,-0.998247 -0.241014,-1.514945 0.0083,-0.243768 0.02479,-0.487537 -0.181793,-0.677594 -0.141854,-0.130836 -0.0606,-0.274067 0.02204,-0.395263 0.569252,-0.839187 1.142177,-1.674703 1.718774,-2.506545 0.09916,-0.141854 0.242392,-0.214847 0.14874,-0.46137 -0.09365,-0.246523 0.181794,-0.341551 0.319516,-0.479274 1.642293,-1.643608 3.047703,-3.507908 4.17574,-5.53919 0.512327,-0.939266 1.093515,-1.841347 1.484646,-2.842588 0.121196,0.03719 0.08263,0.103291 0.06886,0.157003 -0.04683,0.152872 -0.141854,0.330534 0.0909,0.403526 0.08416,0.03836 0.18098,0.03749 0.264434,-0.0024 0.08345,-0.03987 0.144973,-0.114639 0.168014,-0.204211 0.147363,-0.639031 0.607356,-1.114173 0.812562,-1.74081 0.290594,-0.886931 0.632145,-1.764222 0.922739,-2.655285 0.424061,-1.283945 0.769919,-2.59241 1.035672,-3.9182 0.09778,-0.497177 0.168021,-1.071479 0.559152,-1.643027 z M 1.4810417,40.099222 c 0.1170639,0.688612 0.2561634,1.377223 0.3429285,2.065835 0.033414,0.389612 0.099758,0.775695 0.1983201,1.154112 0.1032917,0.348438 0.191434,0.68448 -0.056466,1.016391 -0.050754,0.08248 -0.063787,0.182732 -0.035808,0.275444 0.2093379,0.498555 0.246523,1.03154 0.3567008,1.550753 0.041317,0.198321 0.1060461,0.530231 0.519213,0.336043 0.1721529,-0.08401 0.4104124,0.111555 0.4778964,0.329156 0.091935,0.258937 0.2229065,0.502302 0.3883768,0.721665 0.2947257,0.433825 0.4765192,0.826334 0.063352,1.30423 -0.1570034,0.181793 -0.02479,0.407658 0.086765,0.636277 0.1115551,0.228619 0.3814908,0.367719 0.3677185,0.663821 0.066948,0.03911 0.1004866,0.117363 0.082633,0.192812 -0.00275,0.01102 -0.034431,0.02617 -0.034431,0.02617 -0.085388,-0.03856 -0.070238,-0.122573 -0.085388,-0.192811 L 4.153,50.183 C 3.7020014,50.134545 3.581466,49.739589 3.4101254,49.434344 l -0.053306,-0.08845 C 2.5855745,48.165617 2.1448631,46.853123 1.8005574,45.489673 1.5760701,44.602741 1.3433194,43.718564 1.2055971,42.812351 c -0.071616,-0.477896 -0.129459,-0.954415 0.027544,-1.426803 0.1969428,-0.140476 0.111555,-0.351191 0.1267045,-0.532985 0.020658,-0.253409 -0.033053,-0.516458 0.1211956,-0.753341 z M 37.087763,4.1068787 c 0.745831,0.7822385 1.387423,1.6576002 1.908831,2.6043285 0.993149,1.8889617 1.745033,3.8952188 2.237987,5.9716388 0.630768,2.591933 0.566039,5.208657 0.493046,7.82538 -0.0303,1.089384 -0.311253,2.173258 -0.459993,3.261264 -0.182247,1.507066 -0.475941,2.998552 -0.878668,4.462202 -0.548135,1.888173 -1.119682,3.772214 -1.859251,5.592903 -0.583025,1.445831 -1.252178,2.85542 -2.003859,4.221188 -0.202452,0.364964 -0.28784,0.801544 -0.52059,1.143095 -0.694121,1.019145 -1.290458,2.108528 -2.080984,3.062944 -0.110178,0.132213 -0.236883,0.250654 -0.413167,0.191434 -0.331911,-0.11431 -0.52059,0.08814 -0.698252,0.298857 -1.250519,1.484646 -2.563012,2.893545 -4.097238,4.11101 -0.805676,0.639032 -1.609974,1.282195 -2.436308,1.893682 l -0.07775,0.06197 c -0.07908,0.06198 -0.162233,0.108456 -0.250031,0 -0.0909,-0.111555 0.02754,-0.210715 0.103292,-0.290594 0.432448,-0.451729 0.886932,-0.884177 1.300098,-1.352433 1.604465,-1.817934 3.087734,-3.726765 4.292804,-5.842179 0.236883,-0.414545 0.448975,-0.856633 0.776754,-1.22022 0.06761,-0.108845 0.114312,-0.229348 0.137722,-0.355324 0.02617,-0.07988 0.03443,-0.165266 -0.06748,-0.199697 -0.07437,-0.02617 -0.114309,0.03305 -0.154248,0.08401 -0.139057,0.158195 -0.26655,0.326191 -0.381491,0.502686 -0.407321,0.759761 -0.857956,1.495492 -1.349679,2.203557 -0.04419,0.04739 -0.09416,0.08903 -0.14874,0.12395 0.06886,-0.488914 0.31263,-0.921362 0.541249,-1.334529 0.417298,-0.742048 0.792454,-1.50244 1.157892,-2.26779 l 0.727526,-1.533345 c 0.557775,-1.162377 1.001241,-2.366069 1.497041,-3.547727 0.676217,-1.630632 1.169262,-3.332879 1.652668,-5.037881 0.41394,-1.478933 0.740902,-2.980841 0.979205,-4.49801 0.261673,-1.625123 0.582565,-3.246115 0.665199,-4.898782 0.01653,-0.331911 0.177662,-0.636277 0.232751,-0.970942 0,0.751964 0.06335,1.509436 -0.01377,2.253137 -0.130836,1.300098 -0.304366,2.601574 -0.550889,3.885145 -0.228619,1.188544 -0.432448,2.386728 -0.761604,3.55599 -0.307121,1.089383 -0.509573,2.203557 -0.903458,3.272282 -0.150118,0.411789 -0.130837,0.881422 -0.296103,1.311116 -0.08043,0.203921 0.0034,0.435832 0.195565,0.541248 -0.359455,0.731306 -0.601846,1.520455 -0.998486,2.246251 -0.592206,1.082497 -1.111419,2.206311 -1.731169,3.276413 -0.05784,0.09916 -0.161136,0.2479 -0.02341,0.329157 0.110178,0.06886 0.191434,-0.06611 0.256163,-0.162513 0.275445,-0.411789 0.444843,-0.877291 0.688612,-1.302853 1.063216,-1.855119 1.846856,-3.836943 2.673189,-5.799485 0.09503,-0.22311 0.315384,-0.473765 0.137723,-0.765736 l -0.0179,-0.0041 c 0.537117,-0.513704 0.59496,-1.2395 0.798789,-1.903322 0.220356,-0.75885 0.499932,-1.495664 0.727174,-2.249005 0.435202,-1.433689 0.751963,-2.892168 1.075611,-4.353402 0.26305,-1.184411 0.144608,-2.374332 0.308498,-3.547726 0.08263,-0.58532 -0.02204,-1.195429 0.236882,-1.762845 0.112932,-0.246523 -0.118441,-0.477896 -0.108801,-0.753341 0.02617,-0.728551 0.01377,-1.459856 0.01377,-2.189784 -0.0096,-2.096134 -0.1391,-4.182626 -0.85801,-6.1727136 C 38.335527,6.8943779 37.948527,5.6824217 37.167642,4.6577679 37.061596,4.5200456 36.919742,4.3534016 37.087763,4.1068787 Z M 9.687913,47.974183 c 0.538247,-0.07551 1.083965,-0.08152 1.623746,-0.0179 -0.517033,0.214438 -1.099364,0.220848 -1.623746,0.0179 z M 7.1552001,46.437202 c 0.073866,-0.09395 0.2061441,-0.118158 0.3084979,-0.05647 0.302989,0.199697 0.6817253,0.231373 0.9916005,0.435202 0.457238,0.296103 0.9365116,0.555021 1.5149452,0.359456 0.09439,-0.01337 0.1897253,0.01705 0.2589183,0.08263 0.02066,0.0606 0.05096,0.03856 0.08401,0.01102 0.491669,0.05509 0.990223,0.07712 1.473629,0.174907 0.238259,0.0482 0.342928,-0.157003 0.528853,-0.157003 0.846992,-0.02892 1.627878,-0.355324 2.439062,-0.538495 h 0.404904 c -0.654181,0.400772 -1.31938,0.762982 -2.118169,0.793281 -0.232751,0.0096 -0.458615,-0.330534 -0.688612,-0.0096 l 0.0012,-0.0031 0.03681,0.005 c 0.07986,0.0016 0.178694,-0.03486 0.215169,0.04881 l 0.01266,0.05257 c 0.0096,0.107423 -0.09227,0.161135 -0.191434,0.176285 -0.249277,0.03994 -0.501309,0.07299 -0.762981,0.110177 v -0.170775 c 0.174907,-0.245146 0.494423,-0.03856 0.688611,-0.221733 L 12.348,47.532 h -2.73 l 0.068543,0.04235 c 0.208181,0.09265 0.4591113,-0.04043 0.5941343,0.143 l 0.04489,0.08468 C 9.101216,47.919094 8.1316511,47.359941 7.222684,46.635522 7.1552001,46.574924 7.1001112,46.514327 7.1552001,46.437202 Z M 4.5384765,43.91413 c 0.382868,0.22311 0.3511919,0.69412 0.6156187,1.005372 0.5508891,0.647295 1.0659705,1.316626 1.7311692,1.852365 0.084011,0.06611 0.203829,0.1391 0.1735301,0.267181 -0.035808,0.150118 -0.1804162,0.09503 -0.2850852,0.110178 C 5.6154649,46.598337 4.8745189,45.683861 4.491651,44.476037 4.4162178,44.292067 4.4336338,44.083076 4.5384765,43.91413 Z m 17.3020515,2.49415 c 0.409035,-0.04269 0.81807,0.01102 1.134832,0.329157 0.06326,0.05622 0.07057,0.152468 0.01653,0.217601 -0.101914,0.141854 -0.238259,0.213469 -0.557775,0.151494 -0.236459,-0.08455 -0.464281,-0.191544 -0.680348,-0.319515 -0.18868,-0.12395 -0.157004,-0.352569 0.08676,-0.378737 z m 11.774224,-3.20756 0.05474,0.01654 c 0.176284,0.09778 0.09365,0.289217 0.0179,0.426939 -0.20364,0.389053 -0.429416,0.766113 -0.676216,1.129323 -0.455516,0.640627 -0.954804,1.248975 -1.494287,1.820688 -0.06107,0.08607 -0.160272,0.136951 -0.265804,0.136351 -0.257541,-0.08402 -0.179039,-0.256169 -0.0785,-0.413172 0.513705,-0.80843 1.027409,-1.623746 1.696739,-2.323375 0.177662,-0.184548 0.34706,-0.378737 0.516459,-0.572925 0.08263,-0.09227 0.145985,-0.276822 0.283708,-0.203829 z M 7.1995884,26.407133 l 0.061658,0.0052 c 0.191434,0.04132 0.09916,0.194188 0.079879,0.316761 -0.1129323,0.757473 -0.4241847,1.459856 -0.561907,2.215952 -0.3415513,1.970806 -0.8883088,3.905804 -1.1017783,5.898646 -0.1670697,1.757959 -0.1924006,3.526512 -0.075747,5.288536 0.075835,1.210857 0.2940214,2.408569 0.6500492,3.568384 0.1971076,0.678288 0.529237,1.309756 0.9764511,1.856497 0.1322134,0.159757 0.3181385,0.28233 0.3594552,0.506818 l -0.1241995,0.009 C 7.1460186,46.077866 6.9366807,45.929466 6.7861043,45.602605 6.598802,45.197701 6.153959,44.937406 6.0479129,44.488432 5.8427066,43.613895 5.3840914,42.835764 5.1417002,41.987395 4.9891857,41.398025 4.8714595,40.800196 4.7891311,40.197005 4.7436828,39.914674 4.707875,39.629589 4.6665583,39.345881 5.048049,39.197141 4.8951773,38.8308 4.9103267,38.591163 c 0.053712,-0.929625 0.034431,-1.863382 0.053712,-2.79714 0.031676,-1.510813 0.370473,-2.978933 0.6376542,-4.45807 0.038562,-0.217601 0.2547863,-0.685857 -0.3456829,-0.458615 0.191434,-0.647295 0.3195157,-1.31938 0.5949603,-1.928112 0.2437684,-0.548135 0.3071207,-1.205071 0.8580099,-1.604465 0.2176012,-0.14874 0.2423912,-0.447598 0.3016118,-0.699629 0.031676,-0.1391 0.093651,-0.267182 0.2506545,-0.232751 z M 23.962828,45.320274 c 0.05647,-0.137722 0.205207,-0.03719 0.297481,0 0.163614,0.06445 0.14874,0.160144 0.113637,0.2597 l -0.03598,0.09983 c -0.01034,0.03303 -0.01706,0.06548 -0.0143,0.09633 L 24.323,45.774 l -0.0331,0.0049 c -0.103613,0.02603 -0.221019,0.130088 -0.297138,0.02448 l -0.02994,-0.05894 c -0.04885,-0.137175 -0.04885,-0.28701 0,-0.424185 z M 22.41483,44.531126 c 0.174907,-0.03581 0.260295,0.0964 0.252032,0.267181 -0.01377,0.287839 -0.216224,0.319516 -0.468256,0.305743 -0.0785,-0.03305 -0.304366,0.05784 -0.252032,-0.137722 0.06452,-0.219925 0.244204,-0.386921 0.468256,-0.435202 z M 2.7439551,42.81786 c 0.082633,0.02204 0.166644,0.06886 0.166644,0.151495 0.00826,0.550889 0.1225728,1.10591 -0.066107,1.648536 C 2.5662933,44.032571 2.7232967,43.421084 2.7439551,42.81786 Z m 17.0637919,0.36221 0.117064,0.115687 c -0.08214,0.188195 -0.247875,0.326904 -0.447598,0.374604 L 19.481,43.669 c -0.115545,0.241601 -0.316646,0.428562 -0.561186,0.528796 l -0.125703,0.04274 c 0.1687,-0.253903 0.395878,-0.463606 0.662444,-0.611487 l -0.0036,0.002 z m 12.565782,-7.953462 c -0.01928,0.57017 -0.402149,1.002618 -0.578434,1.514945 -0.300111,0.864143 -0.651939,1.709448 -1.053575,2.531335 -0.338797,0.703761 -0.429694,1.484647 -0.75885,2.182899 -0.398018,0.84286 -0.739569,1.724283 -1.345547,2.466606 -0.165267,-0.143231 -0.09365,-0.249277 -0.04269,-0.344306 0.373228,-0.685857 0.465501,-1.469497 0.732683,-2.180144 0.267181,-0.710647 0.43107,-1.459856 0.86765,-2.1223 0.300235,-0.462747 0.687234,-0.943398 0.645918,-1.570034 0.43107,-0.878668 1.012258,-1.659554 1.532849,-2.479001 z m -2.65804,1.969428 c 0.229701,0.08088 0.451455,0.182763 0.662444,0.304367 0.140476,0.0909 0.02617,0.20796 -0.04407,0.325024 -0.878894,1.453606 -1.847585,2.850986 -2.900432,4.184003 -0.125327,0.161135 -0.08263,0.561907 -0.476519,0.459993 l -0.0124,-0.01515 c 0.02479,-0.359455 0.275445,-0.615618 0.475142,-0.858009 0.199697,-0.242392 0.618373,-0.375982 0.320893,-0.815316 -0.05096,-0.07575 0.0482,-0.100538 0.100537,-0.119819 0.451729,-0.161135 0.859387,-0.349814 0.688612,-0.964056 -0.0303,-0.112932 0.08401,-0.17353 0.172152,-0.206583 0.607356,-0.220356 0.706516,-0.768491 0.844238,-1.291835 l 0.07016,-0.250526 c 0.05623,-0.208652 0.0953,-0.418608 0.03037,-0.641915 -0.0083,-0.0303 0.06198,-0.110178 0.06886,-0.110178 z M 2.620005,37.875007 c 0.031676,0.05509 0.08952,0.110178 0.08952,0.165267 -0.00551,1.258782 -0.013772,2.517563 -0.016527,3.776345 -0.1127668,-0.03228 -0.1874775,-0.139172 -0.1790389,-0.256163 -0.050957,-1.178903 -0.017904,-2.346788 0.017904,-3.520182 0.00138,-0.05647 0.057843,-0.110178 0.088142,-0.165267 z m -1.1403405,-1.481892 0.2726901,0.02892 c -0.093651,0.877291 -0.1680212,1.755959 -0.1831707,2.638759 -0.00275,0.145986 0.089519,0.329156 -0.1060461,0.433825 l -0.2575407,0.05371 c -0.1514945,-0.904835 -0.033053,-1.804162 0.1487401,-2.695225 0.033053,-0.155626 0.082633,-0.307121 0.1253273,-0.459993 z m 1.2436322,0.02066 c 0.1253273,0.287839 0.2010746,0.571547 -0.078502,0.826333 l -0.032279,-0.213168 c -0.028922,-0.212135 -0.033828,-0.42001 0.1107803,-0.613165 z m 1.5159944,-0.365303 0.043022,0.01136 c 0.1735301,0.183171 0.07437,0.387 0.063352,0.588075 L 4.133573,36.563891 c 0.067484,-0.16389 -0.1501173,-0.341551 0.020658,-0.4958 0.038723,-0.0237 0.086635,-0.02679 0.1280817,-0.0083 z m -2.1054458,-2.350581 -0.00937,0.149308 c -0.00383,0.249589 0.039213,0.501889 -0.052602,0.741755 -0.055089,-0.08126 -0.092274,-0.188679 -0.2134695,-0.188679 0.04958,-0.250655 -0.1377223,-0.593583 0.2754445,-0.702384 z M 35.486053,7.9851384 c 0.432448,0.6431631 0.656935,1.3675824 0.826333,2.1126596 -0.09697,0.06059 -0.165485,0.157647 -0.190097,0.26931 -0.02461,0.111663 -0.0033,0.228533 0.05926,0.324273 0.05922,0.12395 -0.05509,0.387 0.196943,0.359456 0.184548,-0.02066 0.08952,-0.241014 0.129459,-0.367719 0.647295,1.57692 0.856633,3.235097 0.877291,4.91944 0.0096,1.214711 0.08263,2.439062 -0.128082,3.64 -0.220355,1.257405 -0.32227,2.531336 -0.572925,3.787363 -0.195565,0.98196 -0.360832,1.959789 -0.674839,2.910072 -0.03581,0.107424 -0.04407,0.227242 -0.181793,0.25341 -0.03443,-0.459993 0.325024,-0.80843 0.351192,-1.246387 0.02066,-0.242391 0.258918,-0.568793 -0.137723,-0.706516 -0.413167,-0.147362 -1.012258,0.121196 -1.101778,0.464125 -0.2479,0.953038 -0.490291,1.907453 -0.739569,2.859114 -0.08539,0.326402 -0.122572,0.539872 0.359456,0.402149 0.34706,-0.103291 0.512326,0.09916 0.393885,0.400772 -0.663821,1.709134 -1.28908,3.434794 -2.141581,5.064049 -0.07988,0.151494 -0.08263,0.356701 -0.340174,0.34706 -0.257541,-0.0096 -0.228619,-0.225864 -0.275445,-0.389754 -0.01424,-0.06383 -0.04513,-0.12275 -0.08952,-0.170776 -0.311253,-0.27269 -0.243769,-0.398017 0.101914,-0.626636 0.382868,-0.253409 0.506818,-0.769868 0.81807,-1.129323 0.136345,-0.15838 -0.07299,-0.315384 -0.293348,-0.265804 -0.280954,0.06473 -0.192811,-0.05647 -0.154249,-0.229996 0.174907,-0.831843 0.61975,-1.570034 0.863519,-2.382596 0.107423,-0.355323 0.275444,-0.714778 0.40628,-1.072856 0.312998,-0.911727 0.529038,-1.853901 0.644541,-2.810912 0.09365,-0.667953 0.315384,-1.324889 0.382868,-2.0135 0.0083,-0.03719 0.09503,-0.06611 0.145985,-0.09778 0.04407,0.165267 -0.07024,0.349815 0.145986,0.615619 0.301612,-1.349679 0.517836,-2.611215 0.439334,-3.914068 l -2.48e-4,0.0026 -0.07409,0.01326 c -0.06584,0.02631 -0.105605,0.08743 -0.15112,0.140509 l -0.04861,0.04882 v -1.33866 l 0.111555,-0.0083 0.163264,1.141334 0.259824,-0.07677 c 0.339613,-0.122522 0.651885,-0.314007 0.984153,-0.458564 l 0.25369,-0.09781 c 0.130836,-0.04407 0.147363,-0.25341 0.147363,-0.391132 0.01377,-0.870405 0.02341,-1.743564 0.02341,-2.616723 -0.0014,-0.311253 -0.09365,-0.451729 -0.447597,-0.23826 -0.433416,0.234559 -0.87939,0.445133 -1.335906,0.630768 0.139099,-0.144608 0.121195,-0.32227 0.112932,-0.501309 -0.05511,-0.752044 -0.191329,-1.495931 -0.406281,-2.218706 -0.03994,-0.150117 0.01653,-0.385622 -0.252032,-0.473765 0.134968,1.038426 0.505441,2.020386 0.348438,3.057435 -0.181794,-0.02892 -0.261673,0.05784 -0.275445,0.23826 -0.0069,0.09641 -0.04407,0.206583 -0.169398,0.18317 -0.125328,-0.02341 -0.101915,-0.141854 -0.125328,-0.23275 -0.33191,-1.311117 -0.443465,-2.666304 -0.834597,-3.963648 -0.03349,-0.07473 -0.02675,-0.161351 0.0179,-0.229996 0.429694,-0.549512 0.183171,-1.042558 -0.161135,-1.488778 -0.221733,-0.286462 -0.256163,-0.4723875 0.04132,-0.7244193 0.402149,-0.3387968 0.735437,-0.7629815 1.260159,-0.939266 C 35.155519,8.7109349 35.300127,8.631056 35.251925,8.513992 35.138992,8.235793 35.432341,8.1696863 35.486053,7.9851384 Z M 4.4296759,29.982143 c 0.5563981,0.05647 0.3236474,0.468256 0.296103,0.735437 -0.053712,0.535739 -0.044071,0.57017 0.4668785,0.476519 C 4.986074,31.596248 5.072839,32.118215 4.6706899,32.4336 L 4.5629223,31.742578 4.4530887,31.041227 c -0.2630496,0.09641 -0.09916,0.422808 -0.4007718,0.538494 0.1377222,-0.560529 0.012395,-1.121059 0.377359,-1.597578 z m 0.7919032,-2.726902 c -0.1404767,0.454484 -0.1267045,0.83322 0.4352024,1.005373 l -0.7147786,-0.03305 9.257e-4,-0.233792 c 0.00395,-0.271972 0.035494,-0.536076 0.2786505,-0.738528 z M 32.423109,25.992328 c 0.19832,0.345683 0.05371,0.628014 -0.161135,0.897949 -0.158381,-0.337419 -0.134968,-0.641786 0.161135,-0.897949 z m 0.816693,-6.287023 c 0.0987,0.901361 0.03904,1.813037 -0.176285,2.693848 -0.186241,0.781556 -0.308302,1.577025 -0.364964,2.378464 -0.03039,0.321005 -0.120545,0.633495 -0.265804,0.921362 -0.293348,-0.09227 -0.289216,0.285086 -0.501309,0.320893 0.0606,-0.689988 0.329156,-1.32902 0.43658,-2.017631 0.22311,-1.441953 0.555021,-2.867378 0.871782,-4.296936 z m 5.569489,-8.425849 c 0.280954,0.89244 0.285086,1.819311 0.294726,2.736542 0.03952,1.549511 -9.28e-4,3.10003 -0.121195,4.645372 l -0.126748,1.397989 c -0.128986,1.39786 -0.2785,2.793589 -0.572882,4.171501 -0.09227,0.437957 -0.07437,0.903458 -0.340174,1.297344 0.155626,-1.293212 0.174908,-2.609838 0.360833,-3.883769 0.217601,-1.488778 0.236882,-2.983065 0.374604,-4.469088 0.130836,-1.446084 0.228619,-2.910072 0.145986,-4.369928 -0.02066,-0.353947 -0.07024,-0.706516 -0.0909,-1.060462 -0.0083,-0.154249 -0.04958,-0.330534 0.07575,-0.465501 z m -8.491956,12.450095 c 0.01102,0.373227 0.01928,0.745077 -0.245146,1.046689 -0.0051,-0.36371 0.08036,-0.722446 0.245146,-1.046689 z m 3.721256,-9.33344 c 0.184548,0.688611 0.370473,1.375846 0.267182,2.100265 -0.04132,0.01928 -0.119819,0.03718 -0.119819,0.05647 -0.0179,0.778131 -0.100537,1.557639 0.0482,2.331639 0.04545,1.415785 -0.264427,2.793008 -0.550889,4.17023 -0.01928,0.0909 -0.01377,0.198321 -0.129459,0.23826 -0.199697,-0.243768 -0.121196,-0.538494 -0.07988,-0.794658 0.410412,-2.540976 0.472387,-5.097102 0.382868,-7.661491 -0.01239,-0.170775 -0.07162,-0.377359 0.181793,-0.440711 z m 1.286326,5.550208 c 0.04269,0.43658 0.07162,0.87316 -0.06611,1.300099 -0.406281,-0.09916 -0.433825,-0.388377 -0.413167,-0.73406 -0.0102,-0.284073 0.197405,-0.529269 0.479273,-0.566039 z M 27.422412,7.5444271 c 0.144609,-0.070238 0.300235,0.097783 0.381491,0.2355051 0.487537,0.8166932 1.110042,1.5576391 1.487401,2.4390618 0.553643,1.290458 1.024654,2.620855 1.22986,4.009096 0.218978,1.486023 0.385622,2.98031 0.327779,4.495255 -0.02754,0.729929 0.03856,1.473629 -0.196943,2.203557 0.132214,-2.812289 0.02066,-5.595657 -0.884177,-8.289505 -0.0041,-0.114309 0.03581,-0.241014 -0.09365,-0.318138 l 0.0064,-0.119446 c 0.0063,-0.138605 -0.0067,-0.26786 -0.200626,-0.317134 l -0.02128,-0.174961 c -0.07722,-0.461935 -0.31667,-0.883591 -0.678354,-1.187112 l -0.07575,-0.100538 C 28.66329,10.166659 28.617842,9.9146277 28.310721,9.8416349 L 28.284737,9.7097824 C 28.199993,9.3182489 28.047534,8.9670984 27.649654,8.7687783 27.494749,8.542035 27.387456,8.2862205 27.33427,8.0168146 27.28469,7.8295122 27.277804,7.6146655 27.422412,7.5444271 Z M 10.42335,16.146561 c 0.561907,0.235505 0.326402,0.68448 0.220356,1.03154 -0.162513,0.534363 -0.23826,1.086629 -0.413167,1.619614 -0.1391,0.421431 -0.3360425,0.82358 -0.4434659,1.256028 -0.020658,0.08126 -0.028922,0.265804 -0.1886796,0.218978 -0.067484,-0.0179 -0.095028,-0.155626 -0.1377223,-0.241014 -0.031676,0.01102 -0.071616,0.01102 -0.086765,0.0303 -0.1101778,0.14874 -0.1211956,0.502686 -0.3856224,0.377359 -0.3305335,-0.157003 -0.00413,-0.364964 0.059221,-0.550889 0.048203,-0.137722 0.086765,-0.275445 0.1253272,-0.413167 0.088142,-0.300234 0.166644,-0.603223 -0.4131668,-0.309875 0.3635868,-0.502686 0.3883768,-1.101778 0.8469921,-1.458479 0.092274,0.363587 -0.1831707,0.728551 -0.045448,1.189921 C 10.08637,18.0723 10.383831,17.123371 10.42335,16.146561 Z m -2.885282,2.711752 c 0.052334,0.261673 0.028922,0.494423 -0.2327506,0.641786 -0.019281,-0.249277 -0.00551,-0.48616 0.2327506,-0.641786 z m 1.10591,-0.369095 C 8.7417609,18.978132 8.2432062,19.042861 8.0531494,19.326569 8.0462633,18.68616 8.1660817,18.51263 8.643978,18.489218 Z M 9.9922793,15.860099 C 10.01156,16.304942 9.8256353,16.720863 9.7719236,17.156066 9.5198918,17.135407 9.6521052,16.902657 9.5777352,16.797988 9.2499561,16.952237 9.384924,17.460432 8.9827749,17.562347 9.0461271,17.336482 9.1149883,17.13403 9.1714544,16.873735 9.2279206,16.61344 9.4427673,16.211291 8.847807,16.475718 c -0.056267,0.03002 -0.1257848,0.01749 -0.1680212,-0.0303 -0.2616723,-0.235505 -0.4062807,-0.195566 -0.5040635,0.169398 -0.03994,0.149199 -0.075594,0.299776 -0.1091577,0.451015 l -0.1938314,0.909681 c -0.050957,0.231374 -0.048203,0.490292 -0.2919712,0.6349 -0.037185,-0.723042 0.2575406,-1.385486 0.3952629,-2.074098 0.064598,-0.237403 0.2253364,-0.437079 0.4434658,-0.550889 0.096406,-0.05784 0.2602951,-0.151494 0.3084979,-0.0785 0.24709,0.378331 0.474165,0.299653 0.6980443,0.170713 l 0.1340787,-0.08014 c 0.1116369,-0.06639 0.2233159,-0.125003 0.3371393,-0.125003 0.031676,-0.0014 0.063352,-0.01239 0.095028,-0.01239 z M 35.514974,2.9183353 c 0.703761,0.5508892 1.088006,1.3372835 1.514945,2.0837383 0.837352,1.4736285 1.261537,3.1028832 1.663686,4.7335152 0.05298,0.1718349 0.05298,0.3556412 0,0.5274762 C 38.404388,9.7231937 38.281815,9.1241018 38.153733,8.5401593 37.932,7.5210143 37.444464,6.623065 37.045069,5.6796673 36.685908,4.7864156 36.17682,3.9610693 35.539764,3.2392283 35.441981,3.1318049 35.517729,3.0257587 35.514974,2.9183353 Z m -3.432039,4.5434584 c 0.06748,0.1570034 -0.05784,0.4214302 0.246523,0.4462203 -0.0606,0.3346651 -0.0482,0.6266364 0.291971,0.8263337 0.114309,0.067484 0.185925,0.1735301 0.331911,0.088142 0.145985,-0.085388 0.1088,-0.2107151 0.04407,-0.3319108 -0.09839,-0.1478013 -0.135893,-0.3278964 -0.104669,-0.5026863 0.484782,0.053712 0.751964,0.4007718 0.987469,0.7657359 0.128081,0.1983201 -0.194189,0.6720848 -0.469633,0.6886115 -0.192299,0.020892 -0.386821,0.00453 -0.572925,-0.048203 -0.300235,-0.104669 -0.418676,0.00964 -0.457238,0.2850851 -1.072857,-0.5329853 -1.04669,-1.2491412 -0.29748,-2.2173289 z m 0.871782,-1.4240485 c 0.253409,-0.1707756 0.512327,-0.1625123 0.742323,0.1638896 -0.176285,-0.013084 -0.311941,0.048203 -0.438129,0.1251551 l -0.186248,0.1198399 c -0.06243,0.038971 -0.126554,0.074521 -0.196448,0.099311 -0.220356,0.053712 -0.261672,0.3250246 -0.472387,0.3897541 0.0124,-0.4049036 0.238259,-0.6886115 0.550889,-0.8979494 z M 28.244614,1.3565646 c -0.39664,0.4958002 -0.564661,1.1362089 -1.031539,1.5893152 0.08539,-0.6899887 0.501309,-1.1761484 1.030162,-1.5893152 z M 31.622942,0 l 0.0055,0.13772229 0.01377,0.0316761 C 30.514278,-0.10604616 29.576389,0.29197126 28.693589,1.0108816 28.794126,0.68723423 29.12466,0.40628076 29.606688,0.19556565 29.732015,0.14047674 29.900036,0.15975786 29.970275,0 Z M 20.835,46.783 l -0.0042,-0.126611 c -0.01441,-0.253899 -0.05151,-0.481056 0.09251,-0.697083 0.02892,0.184548 0.195566,0.323647 0.173531,0.526099 -0.168022,0.0069 -0.125328,0.191434 -0.26305,0.300235 z m 3.49,-1.009 v -0.003 l 0.102868,-0.02463 c 0.156494,-0.0687 0.236798,-0.252537 0.386968,-0.32967 l 0.09965,-0.0317 0.08352,-0.136602 c 0.125266,-0.182232 0.290488,-0.334465 0.483897,-0.444586 0.0179,0.391131 -0.220355,0.542626 -0.57017,0.586697 L 24.913,45.39 l -0.03384,0.131197 c -0.114015,0.354819 -0.383318,0.639358 -0.731332,0.772707 l -0.134045,0.04276 c -0.01928,-0.257541 0.29748,-0.329156 0.312629,-0.567416 L 24.324,45.776 Z m 5.255,-12.369 0.001,10e-4 0.06839,-0.01034 c 0.129308,-0.03935 0.148998,-0.169141 0.186893,-0.281309 l 0.02106,-0.05411 c 0.538494,-1.1307 1.127945,-2.239365 1.541112,-3.427908 0.0083,-0.02204 0.05233,-0.03168 0.07988,-0.0482 0.01515,0.07988 0.02892,0.161135 0.04269,0.242392 -0.05647,0.523344 -0.340174,0.965433 -0.56053,1.419916 -0.656935,1.373092 -1.251896,2.783368 -2.065834,4.079335 -0.06496,0.103521 -0.127202,0.208764 -0.188017,0.314918 l -0.358052,0.641391 c -0.180761,0.319688 -0.37185,0.633006 -0.608044,0.918091 0.527476,-1.293212 1.052198,-2.582293 1.707756,-3.821794 l 0.01256,-0.05682 c 0.0141,-0.07699 0.0238,-0.1561 0.103126,-0.203477 z"
       id="path896"
       inkscape:connector-curvature="0" />
  </clipPath>
  <radialGradient
     id="e-42"
     cx="20.886333"
     cy="28.739887"
     gradientTransform="matrix(0.42870024,-0.90344679,0.52885249,0.25094913,-3.266804,40.397328)"
     gradientUnits="userSpaceOnUse"
     r="30.56217">
    <stop
       offset="0"
       stop-color="#f9cc79"
       id="stop899" />
    <stop
       offset=".520913175"
       stop-color="#ffc14f"
       id="stop901" />
    <stop
       offset=".923450675"
       stop-color="#d9a64f"
       id="stop903" />
    <stop
       offset="1"
       stop-color="#ffd590"
       id="stop905" />
  </radialGradient>
  <clipPath
     id="f-39">
    <path
       d="m 32.130611,0 c 0.794657,0.02203557 1.457101,0.40077187 2.111282,0.77675372 1.531472,0.88004548 2.754446,2.09337878 3.8879,3.44305728 1.079663,1.3117863 1.990251,2.7540132 2.710375,4.2928038 0.775377,1.6209912 1.075611,3.3810822 1.377223,5.1287782 0.435925,2.429376 0.539247,4.906773 0.307121,7.364011 -0.221733,2.277926 -0.723042,4.50765 -1.284949,6.720848 -0.926871,3.653772 -2.039667,7.251078 -3.740538,10.630783 -2.523072,5.015846 -5.55434,9.679123 -9.873311,13.352176 -3.315559,2.82274 -7.281994,4.775192 -11.541128,5.681045 -1.490096,0.336147 -3.02389,0.435146 -4.544835,0.293348 C 7.7895728,57.311754 4.5944156,55.842257 2.4349301,52.615424 1.2298601,50.815394 0.65418088,48.7592 0.29610293,46.630013 L 0.25389359,46.333152 0.18730232,45.735679 C 0.15115022,45.437338 0.1019145,45.141235 0,44.854773 V 39.891262 C 0.23275067,39.250853 0.19143399,38.569128 0.27544458,37.909438 0.87605715,33.402843 2.034936,28.988463 3.725388,24.767977 4.8004862,22.067729 6.0766204,19.45193 7.5430499,16.942596 c 0.5090717,-0.879433 1.3544826,-1.513492 2.3412789,-1.755959 0.9378892,-0.260295 1.8124252,0.521967 1.8110482,1.50255 0,1.664787 -0.543838,3.1718 -1.140737,4.664886 l -0.449956,1.11945 c -1.2147101,3.068453 -2.4445702,6.131397 -3.2089289,9.351344 -0.2668337,1.059835 -0.4551062,2.137914 -0.5632842,3.225456 -0.1762787,2.141785 -0.1204059,4.296353 0.166644,6.426122 0.2065835,1.605842 0.7023837,3.050549 1.8096709,4.247356 0.5760911,0.642922 1.3308422,1.099416 2.1677492,1.311116 C 9.8981011,47.230482 9.4188275,46.971565 8.9615895,46.675462 8.6517143,46.471633 8.272978,46.439957 7.969989,46.240259 c -0.1023538,-0.06169 -0.2346316,-0.03748 -0.3084979,0.05647 -0.055089,0.07712 0,0.137723 0.067484,0.19832 0.9089671,0.72442 1.878532,1.283572 3.102883,1.166508 0.447598,-0.01653 0.897949,0.05509 1.342792,-0.04958 v 0.170776 l -0.360832,0.03581 c -0.53978,-0.06362 -1.085499,-0.0576 -1.623746,0.0179 L 9.5620587,47.760713 C 9.4755554,47.678945 9.3503844,47.652846 9.2384113,47.693229 8.5497998,47.555507 7.8722062,47.401258 7.2731142,47.011504 7.3777831,46.996355 7.5223915,47.051443 7.5581993,46.901326 7.5884982,46.773244 7.4686798,46.700252 7.3846692,46.634145 6.722225,46.098405 6.2071437,45.429075 5.6562545,44.78178 5.3918277,44.470528 5.4235038,43.999518 5.0406359,43.776407 4.6896441,42.683931 4.4063173,41.570862 4.1922665,40.443528 4.1041243,39.967009 4.1385548,39.593781 4.5517217,39.264625 4.0297542,39.048401 3.8631103,38.742658 4.2528643,38.293683 c 0.018378,-0.026 0.032338,-0.05485 0.041317,-0.08539 C 4.4071133,37.913569 4.0338859,37.818541 4.0325087,37.570641 4.4828606,37.74968 4.3079533,37.304837 4.4387894,37.157474 4.6219601,36.948136 4.54759,36.658919 4.6384868,36.419283 l 0.2120923,0.08401 c -0.00745,0.575194 0.043304,1.149666 0.1514945,1.714643 -0.041939,0.106206 -0.014,0.227277 0.070238,0.304366 0.1514945,0.209338 -0.048203,0.469633 0.09916,0.678971 0.041317,0.283708 0.077125,0.568793 0.1225729,0.851124 0.082328,0.603191 0.2000545,1.201019 0.352569,1.790389 0.2423913,0.84837 0.7010065,1.626501 0.9062127,2.501037 0.1060462,0.448975 0.5508892,0.70927 0.7381915,1.114174 0.1505764,0.32686 0.3599142,0.475261 0.6773443,0.470349 L 8.086,45.919 8.055262,45.819103 C 7.9852532,45.65712 7.8377756,45.549811 7.7275978,45.41668 7.2803837,44.869939 6.9482542,44.238471 6.7511467,43.560183 6.3951189,42.400368 6.1769329,41.202656 6.1010975,39.991799 5.9844442,38.229776 6.009775,36.461222 6.1768448,34.703263 c 0.2134695,-1.992842 0.760227,-3.92784 1.1017783,-5.898646 0.1377223,-0.756095 0.4489747,-1.458479 0.5619069,-2.215952 0.019281,-0.122572 0.1115551,-0.275444 -0.079879,-0.316761 -0.1570034,-0.03443 -0.2189784,0.09365 -0.2506546,0.232751 -0.059221,0.252032 -0.084011,0.550889 -0.3016118,0.699629 -0.5508892,0.399395 -0.6142414,1.05633 -0.8580099,1.604465 -0.2754445,0.608732 -0.4035263,1.280817 -0.5949603,1.928112 -0.022035,0.104669 -0.042694,0.210715 -0.063352,0.315384 -0.5109497,0.09365 -0.5205903,0.05922 -0.4668786,-0.476519 0.027545,-0.267181 0.2602952,-0.678971 -0.2961029,-0.735437 l 0.095028,-0.534363 c 0.051387,-0.0182 0.092393,-0.05773 0.1124563,-0.108415 0.020064,-0.05069 0.017224,-0.107574 -0.00779,-0.156012 0.02479,-0.110177 0.050957,-0.220355 0.075747,-0.330533 0.071052,-0.05128 0.099678,-0.143334 0.070238,-0.225865 l 0.067484,-0.19832 c 0.076023,-0.02754 0.093872,-0.08506 0.09938,-0.148563 l 0.00253,-0.04838 0.7147787,0.03305 C 5.5970339,27.950739 5.5832617,27.572003 5.7237384,27.117519 l 0.011018,-0.0083 c 0.059221,0 0.088142,-0.02892 0.081256,-0.08952 0.061975,-0.760227 0.3732275,-1.451593 0.6197504,-2.156731 0.4296935,-1.231237 0.8800454,-2.45972 1.4006357,-3.655149 0.277151,-0.659051 0.5171638,-1.33311 0.7189103,-2.019009 0.1900568,-0.283708 0.6886115,-0.348438 0.5908286,-0.837352 0.2176013,-0.275444 0.1060462,-0.65969 0.3387969,-0.924116 0.4021491,-0.101915 0.2671812,-0.61011 0.5949598,-0.764359 0.07437,0.104669 -0.05784,0.33742 0.194189,0.358078 l -0.161135,0.550889 c -0.4627471,0.353946 -0.4875371,0.953038 -0.8511239,1.455725 0.5798108,-0.293349 0.5013091,0.0096 0.4131668,0.309875 -0.038562,0.137722 -0.077124,0.275444 -0.1253272,0.413167 -0.063352,0.185925 -0.3897541,0.393885 -0.059221,0.550889 0.2644268,0.125327 0.2754446,-0.228619 0.3856224,-0.377359 0.015149,-0.01928 0.055089,-0.01928 0.086765,-0.0303 0.042693,0.08539 0.070238,0.22311 0.1377225,0.241014 0.159758,0.04682 0.168021,-0.137722 0.188679,-0.218979 0.107424,-0.432448 0.304367,-0.834597 0.443466,-1.256027 0.174907,-0.532985 0.250655,-1.085251 0.413167,-1.619614 0.106046,-0.34706 0.341551,-0.796035 -0.220356,-1.03154 -0.0785,-0.195566 -0.159758,-0.385622 -0.432448,-0.294726 -0.03168,0 -0.06335,0.01102 -0.09503,0.0124 -0.113823,0 -0.225502,0.05862 -0.337139,0.125003 l -0.134079,0.08014 c -0.2238793,0.12894 -0.4509543,0.207618 -0.6980443,-0.170713 -0.048203,-0.07299 -0.2120923,0.02066 -0.3084979,0.0785 -0.2181294,0.11381 -0.3788683,0.313485 -0.4434658,0.550889 -0.1377223,0.688611 -0.432448,1.351055 -0.395263,2.074098 -0.013772,0.08263 -0.028922,0.166643 -0.042694,0.249277 -0.2382595,0.155626 -0.2520318,0.392508 -0.2327506,0.641786 -0.022036,0.110178 -0.045448,0.220355 -0.067484,0.330533 -0.2217329,0.118441 -0.2520318,0.318139 -0.228619,0.541249 l -0.057843,0.238259 c -0.2148468,0.122573 -0.2313735,0.329157 -0.2299963,0.542626 -0.019281,0.07988 -0.038562,0.158381 -0.056466,0.23826 -0.2203557,0.117064 -0.2437685,0.32227 -0.2396368,0.539871 -0.4462202,1.224351 -0.9172304,2.441816 -1.3331518,3.677185 -0.4159213,1.235369 -0.7684903,2.492774 -1.0783655,3.761196 -0.05398,0.01248 -0.098955,0.0496 -0.1214312,0.100241 -0.022476,0.05064 -0.019838,0.108899 0.00712,0.1573 -0.066107,0.336042 -0.1312953,0.672085 -0.1955657,1.008127 -0.1459856,0.08676 -0.1377222,0.216224 -0.09916,0.355323 l -0.023413,0.166644 c -0.040944,0.02133 -0.070656,0.05934 -0.081481,0.104222 -0.010825,0.04488 -0.0017,0.09225 0.025015,0.129906 -0.028922,0.203829 -0.059221,0.406281 -0.08952,0.61011 -0.1693984,0.0785 -0.1514945,0.216224 -0.1156867,0.359455 l -0.061975,0.528854 c -0.013772,0.0482 -0.028922,0.0964 -0.044071,0.137722 -0.030299,0.239637 -0.061975,0.477897 -0.092274,0.716156 -0.154249,0.08539 -0.1377223,0.218979 -0.1005373,0.358078 l -0.035808,0.359455 c -0.075084,0.05315 -0.096674,0.155104 -0.04958,0.234128 l -0.031676,0.445532 -0.031676,0.445531 -0.034431,0.108801 c -0.2079606,0.151494 -0.1459856,0.353946 -0.1060461,0.550889 l -0.00826,0.159758 c -0.1928112,0.257541 -0.1198184,0.541249 -0.078502,0.826334 l -0.028922,0.640408 c -0.030299,0.05509 -0.086765,0.108801 -0.088142,0.165267 -0.035808,1.173394 -0.068861,2.341279 -0.017904,3.520182 -0.00844,0.116991 0.066272,0.223885 0.179039,0.256163 0.019281,0.333288 0.037185,0.667953 0.055089,1.001241 -0.020658,0.603224 -0.1776618,1.214711 0.1005372,1.800031 l 0.00826,0.137722 c -0.104669,0.236882 -0.039939,0.473765 -0.020658,0.716156 0.042694,0.561907 0.4544836,0.913099 0.7202876,1.348301 0.3856224,0.630768 0.753341,1.276686 1.1761484,1.884041 0.531608,0.760227 0.5137041,1.841347 -0.1225728,2.513432 -0.1983201,0.210715 -0.4696331,0.353946 -0.6886115,0.01515 C 3.9223308,50.316839 3.2571322,49.684694 2.8150436,48.85836 1.8151798,46.990846 1.3000984,45.002136 1.0081272,42.928038 c -0.15837756,-1.108545 -0.15837756,-2.233975 0,-3.34252 0.1900567,-1.311116 0.084011,-2.645645 0.3553235,-3.95263 0.2878396,-1.390995 0.4710102,-2.816421 0.8497465,-4.21017 0.5370697,-2.047401 1.2456304,-4.045929 2.1181689,-5.974393 0.1060461,-0.227242 0.4916685,-0.541249 0.2341278,-0.66933 -0.2575406,-0.128082 -0.4365796,0.334665 -0.5646613,0.597714 -0.5081953,1.043935 -0.8428605,2.155354 -1.2395007,3.244737 -0.6684879,1.891707 -1.1847531,3.833803 -1.5438669,5.80775 -0.35597686,1.796106 -0.58196843,3.615546 -0.6762164,5.444162 -0.0936511,2.181521 -0.0468256,4.332743 0.45172912,6.472947 0.19892808,0.914935 0.34834438,1.839937 0.44759748,2.770973 0.079664,0.703419 0.257205,1.392261 0.5274763,2.046553 0.4035263,0.964056 1.0329172,1.766977 1.7903898,2.498282 1.0905975,1.080841 2.4560151,1.842846 3.9484981,2.203557 2.4666066,0.592206 4.9166856,0.342929 7.3226946,-0.286462 1.223719,-0.339686 2.412879,-0.793402 3.551857,-1.355188 0.85801,-0.413166 1.707757,-0.884177 2.423913,-1.541112 0.68302,-0.447271 1.325026,-0.954239 1.918471,-1.514945 1.133455,-1.008127 2.328884,-1.952902 3.408627,-3.014741 1.776618,-1.749073 3.382459,-3.648264 4.619206,-5.832539 0.05458,-0.03492 0.104553,-0.07656 0.14874,-0.12395 0.491722,-0.708065 0.942358,-1.443796 1.349678,-2.203557 0.114942,-0.176496 0.242435,-0.344491 0.381491,-0.502686 0.03994,-0.05096 0.07988,-0.110178 0.154249,-0.08401 0.101914,0.03443 0.09365,0.119819 0.06748,0.199697 -0.02341,0.125976 -0.07012,0.246478 -0.137722,0.355324 -0.32778,0.363587 -0.539872,0.805675 -0.776754,1.220219 -1.20507,2.115415 -2.688339,4.024246 -4.292804,5.84218 -0.413167,0.468256 -0.86765,0.900704 -1.300098,1.352433 -0.07575,0.07988 -0.194189,0.179039 -0.103292,0.290594 0.0878,0.108456 0.170948,0.06198 0.25003,0 l 0.07775,-0.06197 c 0.826334,-0.611487 1.630632,-1.25465 2.436307,-1.893682 1.534227,-1.217465 2.84672,-2.626364 4.097238,-4.11101 0.177662,-0.210715 0.366342,-0.413167 0.698253,-0.298857 0.176284,0.05922 0.302988,-0.05922 0.413166,-0.191434 0.790526,-0.954416 1.386864,-2.043799 2.080984,-3.062944 0.232751,-0.341551 0.318139,-0.778131 0.52059,-1.143095 0.751682,-1.365768 1.420835,-2.775357 2.00386,-4.221188 0.739569,-1.820689 1.311116,-3.70473 1.859251,-5.592903 0.402727,-1.46365 0.696421,-2.955136 0.878668,-4.462202 0.14874,-1.088006 0.429693,-2.17188 0.459992,-3.261264 0.07299,-2.616723 0.137723,-5.233447 -0.493045,-7.82538 -0.492955,-2.076419 -1.244839,-4.082677 -2.237988,-5.9716387 -0.521407,-0.9467284 -1.163,-1.8220901 -1.908831,-2.6043285 -0.168021,0.2465229 -0.02617,0.4131668 0.07988,0.5508891 0.780886,1.0246539 1.167885,2.23661 1.594824,3.4196445 0.718911,1.9900871 0.84837,4.0765796 0.85801,6.1727126 0,0.729929 0.01239,1.461234 -0.01377,2.189785 -0.0096,0.275444 0.221733,0.506818 0.108801,0.753341 -0.258918,0.567416 -0.154249,1.177525 -0.236883,1.762845 -0.163889,1.173394 -0.04545,2.363315 -0.308498,3.547726 -0.323647,1.461234 -0.640408,2.919713 -1.075611,4.353402 -0.227242,0.753341 -0.506818,1.490155 -0.727173,2.249005 -0.192812,0.667953 -0.250655,1.39375 -0.787772,1.907454 -0.157003,-0.502687 0.117064,-0.95717 0.265804,-1.377223 0.477897,-1.346924 0.793281,-2.731033 1.108665,-4.116519 0.265804,-0.393886 0.2479,-0.859388 0.340174,-1.297344 0.294381,-1.377912 0.443896,-2.773641 0.572881,-4.171501 l 0.126748,-1.397989 c 0.120267,-1.545342 0.160719,-3.095861 0.121196,-4.645373 -0.0096,-0.91723 -0.01377,-1.844101 -0.294726,-2.736542 v -0.137722 c 0.05371,-0.191434 0.07712,-0.378736 -0.0909,-0.532985 -0.0069,-0.112933 -0.01515,-0.225865 -0.02341,-0.338797 0.05298,-0.171835 0.05298,-0.3556415 0,-0.5274764 C 38.794992,7.9617256 38.370808,6.3324709 37.533456,4.8588424 L 37.25118,4.3583116 c -0.331217,-0.5838027 -0.6853,-1.1547381 -1.232669,-1.5832074 -0.01379,-0.022979 -0.02488,-0.047472 -0.03305,-0.072993 0,-0.05922 -0.02479,-0.088142 -0.08263,-0.093651 l -0.0096,-0.00826 c 0.0022,-0.024231 -0.0066,-0.048172 -0.02391,-0.065242 -0.01734,-0.01707 -0.04141,-0.025474 -0.06561,-0.0229 l -0.08952,-0.117064 C 35.697618,2.2214606 35.564027,2.2076883 35.4387,2.1925389 34.557255,1.2849532 33.485862,0.58370379 32.301386,0.13909951 32.245135,0.10938245 32.192459,0.07334135 32.144383,0.03167613 Z m -7.343353,52.877096 c -0.09308,0.02863 -0.181982,0.06937 -0.264427,0.121196 -0.9916,0.469633 -1.992841,0.921362 -2.974801,1.413031 -1.260159,0.632145 -2.616724,1.013636 -3.912691,1.559016 -0.532694,0.207586 -1.087079,0.354499 -1.652667,0.437957 -0.754718,0.126705 -1.480515,0.355324 -2.221461,0.52059 -0.243768,0.05371 -0.731305,-0.03856 -0.699629,0.294726 0.02204,0.228619 0.515081,0.03856 0.846992,0.118441 1.394916,-0.136894 2.773434,-0.407617 4.116519,-0.80843 0.809807,-0.228619 1.552131,-0.64454 2.341279,-0.919985 1.639916,-0.585003 3.185451,-1.406721 4.58753,-2.439061 0.114309,-0.08263 0.312629,-0.150118 0.221733,-0.318139 -0.0909,-0.168021 -0.257541,0 -0.388377,0.02066 z M 2.635,33.566 c -0.4080305,0.1071 -0.2207282,0.450029 -0.2703083,0.700683 -0.2049022,0.645663 -0.3334019,1.313122 -0.3828679,1.98871 -0.042694,0.152872 -0.092274,0.304366 -0.1253273,0.459993 -0.1817934,0.891063 -0.3002346,1.790389 -0.1487401,2.695225 l 0.027544,1.837215 c -0.1570034,0.472388 -0.09916,0.948907 -0.027544,1.426803 0.1377223,0.906213 0.370473,1.79039 0.5949603,2.677321 0.3443057,1.363451 0.7850171,2.675945 1.5562619,3.856225 0.203829,0.311252 0.3002346,0.783639 0.7960348,0.838728 l 0.012009,0.08711 c 0.00711,0.04307 0.022146,0.08257 0.073379,0.105705 0,0 0.031676,-0.01515 0.034431,-0.02617 0.020575,-0.07719 -0.013333,-0.158574 -0.082633,-0.19832 C 4.7059707,49.719124 4.436035,49.580025 4.3244799,49.351406 4.2129249,49.122787 4.0807115,48.896922 4.2377149,48.715129 4.6508818,48.237233 4.4690884,47.844724 4.1743626,47.410899 4.0088923,47.191536 3.8779212,46.948171 3.7859858,46.689234 3.7185019,46.471633 3.4802423,46.276067 3.3080894,46.360078 2.8949226,46.554266 2.8301931,46.222355 2.7888764,46.024035 2.6786986,45.504822 2.6415135,44.971837 2.4321757,44.473282 2.4041961,44.380569 2.4172291,44.280315 2.4679835,44.197838 2.7158836,43.865927 2.6277413,43.529885 2.5244496,43.181447 2.4258875,42.80303 2.3595438,42.416947 2.3261295,42.027334 2.2393645,41.338723 2.1002649,40.650112 1.983201,39.9615 2.1038011,39.773947 2.0966878,39.531548 1.9652971,39.35139 2.0875256,39.285972 2.0973168,39.189889 2.0881443,39.091386 L 2.074017,38.973827 c -0.00188,-0.01919 -0.00302,-0.03801 -0.00267,-0.05626 0.015149,-0.8828 0.089519,-1.761468 0.1831706,-2.638759 0.1083415,-0.610569 0.216224,-1.22022 0.3236474,-1.828952 0.084837,-0.233577 0.048037,-0.475968 0.048258,-0.715892 z M 33.383883,6.4082182 c 0.04958,0.4958003 0.483406,0.4847825 0.747832,0.4131669 0.721665,-0.1886796 1.152736,0.1941884 1.587938,0.6376542 -0.006,0.084024 0.04058,0.1630069 0.117064,0.1983201 0.05371,0.06473 0.106047,0.1294589 0.159758,0.1928112 -0.05371,0.1845479 -0.34706,0.2506546 -0.234128,0.5288536 0.0482,0.1170639 -0.0964,0.1969429 -0.202451,0.2327507 -0.524722,0.1762845 -0.85801,0.6004692 -1.260159,0.939266 -0.29748,0.2520318 -0.26305,0.4379569 -0.04132,0.7244191 0.344306,0.44622 0.590829,0.939266 0.161135,1.488778 -0.04465,0.06865 -0.0514,0.155268 -0.0179,0.229996 0.391131,1.297344 0.502687,2.652532 0.834597,3.963648 0.02341,0.0909 0,0.209338 0.125328,0.232751 0.125327,0.02341 0.162512,-0.08676 0.169398,-0.183171 0.01377,-0.180416 0.09365,-0.267181 0.275445,-0.23826 0.01653,0.107424 0.06886,0.165267 0.185925,0.137723 0.456516,-0.185636 0.90249,-0.396209 1.335906,-0.630768 0.353946,-0.21347 0.44622,-0.07299 0.447597,0.238259 0,0.873159 -0.0096,1.746319 -0.02341,2.616724 0,0.137722 -0.01653,0.34706 -0.147362,0.391131 -0.43153,0.142313 -0.813327,0.40322 -1.237843,0.556373 l -0.260576,0.07715 -0.162512,-1.144473 -0.111555,0.0083 v 1.33866 c 0,0.151495 -0.0096,0.301612 -0.01377,0.451729 -0.27967,0.03934 -0.484286,0.283812 -0.473765,0.566039 -0.02066,0.345683 0.0069,0.6349 0.413167,0.73406 l -0.0482,0.34706 -0.04683,0.152872 -0.0083,0.253409 c -0.160545,0.141657 -0.119734,0.325811 -0.119541,0.50216 l -0.0044,0.08729 c -0.05096,0.03168 -0.137722,0.0606 -0.145986,0.09778 -0.06748,0.688611 -0.289216,1.345547 -0.382868,2.0135 -0.115503,0.957011 -0.331543,1.899185 -0.64454,2.810912 -0.130836,0.358078 -0.298857,0.717533 -0.406281,1.072857 -0.243768,0.812561 -0.688611,1.550753 -0.863519,2.382595 -0.03856,0.17353 -0.126704,0.294726 0.154249,0.229996 0.220356,-0.04958 0.429694,0.107424 0.293349,0.265804 -0.311253,0.359455 -0.435203,0.875914 -0.818071,1.129323 -0.345683,0.228619 -0.413166,0.353946 -0.101914,0.626637 0.04439,0.04803 0.07528,0.106946 0.08952,0.170775 0.04683,0.16389 0.0179,0.380114 0.275445,0.389754 0.257541,0.0096 0.260295,-0.195565 0.340174,-0.34706 0.852501,-1.629255 1.47776,-3.354915 2.141582,-5.064049 0.118441,-0.301611 -0.04683,-0.504063 -0.393886,-0.400771 -0.482028,0.137722 -0.444843,-0.07575 -0.359455,-0.40215 0.249277,-0.951661 0.491668,-1.906076 0.739568,-2.859114 0.08952,-0.342929 0.688612,-0.611487 1.101779,-0.464124 0.39664,0.137722 0.158381,0.464124 0.137722,0.706515 -0.02617,0.437957 -0.385622,0.786394 -0.351192,1.246387 -0.202452,1.346924 -0.702383,2.604328 -1.200938,3.856224 l -0.548492,1.344424 -1.12208,2.678444 c -0.04545,0.07575 -0.242391,0.03718 -0.15838,0.210715 -0.04269,0.252032 -0.194189,0.453106 -0.311253,0.66933 -0.07285,0.03884 -0.113172,0.119493 -0.100537,0.201075 -0.0096,0.02203 -0.01928,0.04407 -0.02754,0.06748 -0.520591,0.819447 -1.101778,1.600333 -1.532849,2.479001 -1.582068,2.511824 -3.371834,4.88666 -5.350511,7.099584 -0.193409,0.110121 -0.358632,0.262354 -0.483897,0.444587 l -0.08627,0.14211 c -0.220749,0.03069 -0.298829,0.27893 -0.486621,0.361371 L 24.832,45.636 l -0.02239,0.09259 c -0.07569,0.169579 -0.306057,0.25373 -0.28953,0.474479 -0.605978,0.275445 -0.859387,0.986092 -1.560394,1.198184 -0.528853,0.158381 -0.826334,-0.172153 -1.231237,-0.301612 -0.06748,-0.02341 -0.106046,-0.09227 -0.04958,-0.150117 0.228619,-0.235505 -0.0096,-0.406281 -0.07437,-0.601846 0.02203,-0.202452 -0.144609,-0.341552 -0.17353,-0.5261 0.190057,-0.809807 0.849746,-1.267045 1.377223,-1.812425 1.783628,-1.839989 3.393978,-3.840363 4.810639,-5.97577 0.21347,-0.319516 0.413167,-0.647295 0.623882,-0.970942 0.236194,-0.285085 0.427284,-0.598404 0.608044,-0.918092 l 0.358053,-0.64139 c 0.06081,-0.106155 0.123057,-0.211397 0.188016,-0.314919 0.813939,-1.295966 1.408899,-2.706243 2.065834,-4.079334 0.220356,-0.454483 0.504064,-0.896572 0.56053,-1.419917 0.896653,-2.10401 1.574151,-4.294802 2.021763,-6.537677 0.115687,-0.03994 0.110178,-0.147363 0.129459,-0.238259 0.286463,-1.377223 0.596338,-2.754446 0.55089,-4.170231 l 0.01618,-0.04338 0.04855,-0.15356 0.01515,-0.550889 c 0.04821,-0.166438 0.04821,-0.343136 0,-0.509573 l -0.01239,-1.125191 c 0.103292,-0.724419 -0.08263,-1.411654 -0.267181,-2.100265 0,-0.108801 -0.0096,-0.217601 -0.01377,-0.327779 0.03168,-0.145986 0.07024,-0.296103 -0.137722,-0.351192 -0.154249,-1.388241 -0.75885,-2.616723 -1.410277,-3.8149073 -0.03719,-0.070238 -0.06473,-0.1459857 -0.09641,-0.2189785 0.03856,-0.2754446 0.157003,-0.3897541 0.457238,-0.2850851 0.186104,0.052728 0.380626,0.069094 0.572925,0.048203 0.275444,-0.016527 0.597714,-0.4902914 0.469633,-0.6886115 C 34.155266,8.2929478 33.917654,7.9789822 33.518844,7.880318 l -0.139092,-0.024639 c -0.03443,-0.2754446 -0.192811,-0.1101779 -0.31263,-0.085388 l -0.246523,0.015149 c -0.304366,-0.02479 -0.179039,-0.2892168 -0.246523,-0.4462202 0.0024,-0.022856 0.0084,-0.045178 0.0179,-0.066107 0.05513,-0.014219 0.08879,-0.069903 0.07575,-0.1253273 0.04132,-0.053712 0.08126,-0.1088006 0.121195,-0.1625123 l 0.09365,-0.1390995 0.02892,-0.048203 c 0.210715,-0.064729 0.252032,-0.3360424 0.472387,-0.3897541 z M 22.342687,46.270558 c -0.243768,0.02617 -0.275444,0.254786 -0.08676,0.378737 0.216067,0.127971 0.443889,0.234964 0.680348,0.319515 0.319516,0.06198 0.455861,-0.0096 0.557776,-0.151494 0.05404,-0.06513 0.04673,-0.161378 -0.01653,-0.217602 -0.316761,-0.318138 -0.725797,-0.37185 -1.134832,-0.329156 z m -4.21017,-1.356564 c -0.12395,0.341551 -0.36221,0.411789 -0.537117,0.510949 -0.472387,0.265804 -0.809807,0.73406 -1.348301,0.896572 -0.07025,-0.01646 -0.143219,0.01339 -0.181794,0.07437 l -0.01653,0.01102 c -0.147311,-0.0062 -0.28737,0.06414 -0.370473,0.185925 l -0.01928,0.01515 h -0.404904 z m 15.75543,-1.630632 c -0.169398,0.194188 -0.338797,0.388377 -0.516459,0.572924 -0.66933,0.69963 -1.183034,1.514946 -1.696738,2.323375 -0.100537,0.157004 -0.179039,0.329157 0.0785,0.406281 0.104287,0.0022 0.203242,-0.04599 0.265804,-0.129459 0.539484,-0.571713 1.038771,-1.180061 1.494287,-1.820688 0.246801,-0.36321 0.472576,-0.74027 0.676217,-1.129323 0.07575,-0.137722 0.15838,-0.329156 -0.0179,-0.426939 -0.137722,-0.07299 -0.201075,0.111555 -0.283708,0.203829 z m -9.425714,1.89919 c -0.04885,0.137175 -0.04885,0.28701 0,0.424185 0.07223,0.195871 0.208658,0.0642 0.327073,0.03446 l 0.03369,-0.0052 0.0023,-0.04493 c 0.02365,-0.144873 0.179827,-0.311834 -0.06559,-0.408515 -0.09227,-0.03719 -0.241014,-0.137722 -0.297481,0 z m -1.545244,-0.789149 c -0.224052,0.04828 -0.403731,0.215278 -0.468255,0.435203 -0.05234,0.195565 0.17353,0.104669 0.252031,0.134968 0.252032,0.01653 0.454484,-0.01515 0.468256,-0.302989 0.0083,-0.170776 -0.07712,-0.302989 -0.252032,-0.267182 z m 7.300659,-7.335089 c -0.0069,0 -0.07712,0.07988 -0.06886,0.110178 0.06493,0.223307 0.02586,0.433263 -0.03037,0.641914 l -0.07016,0.250526 c -0.137722,0.523345 -0.236882,1.07148 -0.844237,1.291836 -0.08814,0.03305 -0.202452,0.09365 -0.172153,0.206583 0.170776,0.614241 -0.236882,0.802921 -0.688612,0.964056 -0.05233,0.01928 -0.151494,0.04407 -0.100537,0.119818 0.29748,0.439334 -0.121195,0.572925 -0.320893,0.815316 -0.199697,0.242392 -0.450352,0.498555 -0.475142,0.85801 l -0.03581,0.04545 0.0482,-0.0303 c 0.393886,0.101914 0.351192,-0.298858 0.476519,-0.459993 1.052848,-1.333017 2.021538,-2.730397 2.900432,-4.184003 0.07024,-0.117064 0.184548,-0.234128 0.04407,-0.325025 -0.210989,-0.121603 -0.432742,-0.22349 -0.662444,-0.304366 z m 6.864079,-6.182354 c 0.176284,0.291972 -0.04407,0.542626 -0.137722,0.765736 -0.824957,1.962543 -1.609974,3.944367 -2.67319,5.799486 -0.23826,0.425562 -0.413167,0.889686 -0.688611,1.302853 -0.06473,0.09641 -0.145986,0.231373 -0.256164,0.162512 -0.132213,-0.08126 -0.03443,-0.229996 0.02341,-0.329156 0.61975,-1.072857 1.138963,-2.193916 1.731169,-3.276413 0.39664,-0.731306 0.639031,-1.510814 0.998487,-2.246251 0.245145,-0.645917 0.4958,-1.28908 0.735437,-1.936375 0.03217,-0.126249 0.137655,-0.220492 0.267181,-0.242392 z m -4.237042,-5.328454 0.08747,0.01375 c -0.0069,0.09778 -0.0069,0.195566 -0.0069,0.293349 -0.300234,0.256163 -0.323647,0.560529 -0.161135,0.893817 -0.145986,0.929626 -0.548135,1.786259 -0.775376,2.693848 -0.02754,0.01653 -0.07162,0.02617 -0.07988,0.0482 -0.41179,1.188544 -1.002619,2.297208 -1.541113,3.427908 -0.06335,0.133591 -0.05647,0.338797 -0.28233,0.34706 l -0.01653,-0.290594 c 0.864896,-2.134695 1.692607,-4.281786 2.182898,-6.541809 0.04132,-0.184547 0.118441,-0.364964 0.179039,-0.550889 0.212092,-0.03581 0.207961,-0.410412 0.501309,-0.320893 z M 29.285268,10.378752 c 0.406852,0.342929 0.658113,0.83552 0.696875,1.366205 -0.231374,-0.454484 -0.463665,-0.909885 -0.696875,-1.366205 z m 7.537541,-0.4200531 c 0.06473,0.1996971 0.130836,0.3925081 0.195566,0.5853201 -0.03994,0.126704 0.05509,0.34706 -0.129459,0.367718 -0.140018,0.0153 -0.165692,-0.05908 -0.171719,-0.149482 l -0.0039,-0.111448 c -0.0022,-0.03657 -0.0073,-0.07098 -0.02136,-0.09853 -0.06252,-0.09574 -0.08387,-0.21261 -0.05926,-0.324273 0.02461,-0.111663 0.09313,-0.208724 0.190098,-0.2693101 z M 28.817,9.701 28.628281,9.4478833 C 28.447156,9.1892802 28.289067,8.915041 28.155945,8.6283015 c 0.442089,0.2203557 0.581188,0.6293909 0.661067,1.0728567 z"
       id="path908"
       inkscape:connector-curvature="0" />
  </clipPath>
  <radialGradient
     id="g-43"
     cx="21.322552"
     cy="29.665577"
     gradientTransform="matrix(0.41613252,-0.90930398,0.56824617,0.26005133,-4.407807,41.339684)"
     gradientUnits="userSpaceOnUse"
     r="30.163542">
    <stop
       offset="0"
       stop-color="#a36828"
       id="stop911" />
    <stop
       offset=".557293627"
       stop-color="#a06527"
       id="stop913" />
    <stop
       offset=".743201961"
       stop-color="#684217"
       id="stop915" />
    <stop
       offset=".871637154"
       stop-color="#5e3b15"
       id="stop917" />
    <stop
       offset=".952925912"
       stop-color="#a36828"
       id="stop919" />
    <stop
       offset="1"
       stop-color="#c79536"
       id="stop921" />
  </radialGradient>
  <clipPath
     id="h-40">
    <path
       d="m 137.47163,27.956403 v 2.381472 h -0.30258 v -0.103543 c 0,-0.103542 0,-0.207084 -0.10086,-0.310626 -0.084,-0.08629 -0.23814,-0.100666 -0.4039,-0.103063 l -5.74853,-4.8e-4 v 2.174387 h 3.42923 c 0.20171,0 0.40343,0 0.50429,-0.103542 0.10086,-0.103542 0.20172,-0.207084 0.20172,-0.517711 h 0.30258 v 2.79564 H 135.051 c 0,-0.310626 -0.10086,-0.414169 -0.20172,-0.517711 -0.10086,-0.103542 -0.30258,-0.103542 -0.50429,-0.103542 h -3.42923 v 2.485014 h 5.84986 c 0.20171,0 0.30257,0 0.40343,-0.103543 0.10086,-0.103542 0.20172,-0.207084 0.20172,-0.310626 h 0.30258 V 38 h -0.30258 c 0,-0.207084 -0.10086,-0.310627 -0.20172,-0.310627 h -8.57306 v -0.310626 c 0.10086,0 0.20172,0 0.20172,-0.103543 0.10086,-0.103542 0.10086,-0.103542 0.10086,-0.207084 v -8.076294 c 0,-0.103543 0,-0.207085 -0.10086,-0.207085 -0.10086,-0.103542 -0.10086,-0.103542 -0.20172,-0.103542 v -0.310627 h 7.96791 c 0.20172,0 0.40343,0 0.50429,-0.103542 0.10086,-0.103542 0.10086,-0.207084 0.10086,-0.310627 z m -43.571344,0.517711 v 0.310627 c -0.100859,0 -0.201719,0.103542 -0.201719,0.103542 -0.100859,0 -0.100859,0.103543 -0.100859,0.207085 0,0.103542 0,0.207084 0.100859,0.310627 0,0.103542 0.10086,0.207084 0.201719,0.414169 l 3.630946,7.247956 0.05988,0.07766 0.08195,0.155313 c 0.01576,0.02589 0.03467,0.05177 0.05988,0.07766 0.10086,0.103542 0.201719,0.103542 0.302579,0.207084 v 0.310627 h -3.025788 v -0.310627 c 0,0 0.10086,0 0.201719,-0.103542 0.10086,0 0.10086,-0.103542 0.10086,-0.207085 0,-0.103542 0,-0.310626 -0.10086,-0.414169 l -0.706017,-1.346049 h -4.236103 l -0.605158,1.242507 c -0.100859,0.207085 -0.201719,0.414169 -0.201719,0.517711 0,0.103543 0.10086,0.207085 0.302579,0.207085 v 0.310626 h -2.52149 v -0.517711 h -0.10086 c 0.10086,0 0.302579,-0.103542 0.403439,-0.207084 0.100859,-0.103542 0.201719,-0.310627 0.302579,-0.414169 l 3.227507,-6.833788 c 0.100859,-0.103542 0.201719,-0.310626 0.201719,-0.414168 0.10086,-0.103543 0.10086,-0.207085 0.10086,-0.310627 0,-0.103542 0,-0.207085 -0.10086,-0.207085 -0.10086,0 -0.201719,-0.103542 -0.302579,-0.103542 V 28.474114 Z M 80.284241,28.26703 v 0.310627 c -0.302579,0 -0.504298,0.103542 -0.504298,0.310626 v 7.040872 h 5.748997 c 0.201719,0 0.302579,0 0.403438,-0.103542 0.10086,-0.103542 0.201719,-0.207084 0.201719,-0.310627 h 0.302579 v 2.381472 h -0.302579 c 0,-0.207085 -0.100859,-0.310627 -0.201719,-0.310627 h -8.673925 v -0.310627 c 0.302578,0 0.504298,-0.103542 0.504298,-0.310626 v -8.076295 c 0,-0.207084 -0.20172,-0.310626 -0.504298,-0.310626 V 28.26703 Z m 78.065329,0.207084 v 0.310627 c -0.10086,0 -0.20172,0.103542 -0.20172,0.103542 -0.10086,0 -0.10086,0.103543 -0.10086,0.207085 0,0.103542 0,0.207084 0.10086,0.310627 0,0.103542 0.10086,0.207084 0.20172,0.414169 l 3.63095,7.247956 0.0599,0.07766 0.082,0.155313 c 0.0158,0.02589 0.0347,0.05177 0.0599,0.07766 l 0.0756,0.06148 0.15129,0.08413 c 0.0252,0.01618 0.0504,0.03559 0.0756,0.06148 v 0.310627 h -3.02578 v -0.310627 c 0,0 0.10086,0 0.20172,-0.103542 0.10086,0 0.10086,-0.103542 0.10086,-0.207085 0,-0.103542 0,-0.310626 -0.10086,-0.414169 l -0.70602,-1.346049 h -4.2361 l -0.60516,1.242507 c -0.10086,0.207085 -0.20172,0.414169 -0.20172,0.517711 0,0.103543 0.10086,0.207085 0.30258,0.207085 v 0.310627 h -2.52149 v -0.517712 h -0.10086 c 0.10086,0 0.30258,-0.103542 0.40344,-0.207084 0.10086,-0.103542 0.20172,-0.310627 0.30257,-0.414169 l 3.22751,-6.833787 c 0.10086,-0.103543 0.20172,-0.310627 0.20172,-0.414169 0.10086,-0.103543 0.10086,-0.207085 0.10086,-0.310627 0,-0.103542 0,-0.207085 -0.10086,-0.207085 -0.10086,0 -0.20172,-0.103542 -0.30258,-0.103542 v -0.310627 z m 12.00229,-0.103542 1.21032,0.310627 c 0.30258,0.103542 0.60515,0.207084 0.80687,0.310627 0.20172,0.103542 0.40344,0.103542 0.60516,0.103542 0.20172,0 0.30258,0 0.30258,-0.103542 l 0.20172,0.103542 -1.21032,2.174387 -0.20171,-0.103543 c 0,-0.207084 -0.10086,-0.310626 -0.10086,-0.414168 -0.10086,-0.103543 -0.20172,-0.310627 -0.5043,-0.414169 -0.20172,-0.103543 -0.5043,-0.207085 -0.80688,-0.414169 -0.30258,-0.103543 -0.60516,-0.207085 -0.90774,-0.207085 -0.24206,-0.08283 -0.54867,-0.0994 -0.81655,-0.102714 l -0.19204,-8.28e-4 c -0.30258,0 -0.5043,0 -0.80688,0.103542 -0.30258,0 -0.5043,0.103542 -0.70602,0.207085 -0.20171,0.103542 -0.40343,0.207084 -0.50429,0.310626 -0.10086,0.103543 -0.20172,0.310627 -0.20172,0.517712 0,0.310626 0.10086,0.517711 0.30258,0.621253 0.20172,0.103542 0.50429,0.207085 0.80687,0.310627 0.30258,0.103542 0.70602,0.103542 1.10946,0.103542 0.40344,0 0.90773,0.103542 1.31117,0.103542 0.40344,0 0.90774,0.103542 1.31118,0.207085 0.40344,0.103542 0.80687,0.207084 1.10945,0.414169 0.30258,0.207084 0.60516,0.414169 0.80688,0.828338 0.20172,0.310626 0.30258,0.724795 0.30258,1.242506 0,0.621254 -0.20172,1.138965 -0.5043,1.553134 -0.30258,0.414169 -0.70602,0.724795 -1.21031,0.93188 -0.5043,0.207084 -1.0086,0.414169 -1.5129,0.414169 -0.43225,0.08875 -0.93861,0.101429 -1.32852,0.10324 l -0.18437,3.02e-4 c -0.70602,0 -1.21032,0 -1.71462,-0.103542 -0.40343,-0.103542 -0.80687,-0.207085 -1.10945,-0.310627 -0.30258,-0.103542 -0.5043,-0.207084 -0.70602,-0.310627 -0.1681,-0.08629 -0.26616,-0.100666 -0.35254,-0.103062 l -0.0509,-4.8e-4 c -0.10086,0 -0.20172,0 -0.20172,0.103542 l -0.20171,-0.103542 0.60515,-2.070845 0.20172,0.103543 c 0,0.103542 0,0.207084 0.10086,0.310626 0.10086,0.103543 0.20172,0.310627 0.5043,0.414169 0.20172,0.103543 0.5043,0.207085 0.80688,0.414169 0.30258,0.103542 0.60515,0.207085 1.00859,0.207085 0.30258,0.103542 0.60516,0.103542 0.90774,0.103542 h 0.80688 c 0.30257,0 0.60515,-0.103542 0.90773,-0.207085 0.30258,-0.103542 0.60516,-0.207084 0.80688,-0.414168 0.20172,-0.207085 0.30258,-0.414169 0.30258,-0.621254 0,-0.310627 -0.10086,-0.517711 -0.30258,-0.621253 -0.20172,-0.103542 -0.5043,-0.207085 -0.80688,-0.310627 -0.30258,-0.103542 -0.70602,-0.103542 -1.10945,-0.103542 -0.40344,0 -0.90774,0 -1.31118,-0.103542 -0.40344,0 -0.90773,-0.103543 -1.31117,-0.207085 -0.40344,-0.103542 -0.80688,-0.207084 -1.10946,-0.414169 -0.30258,-0.207084 -0.60516,-0.414169 -0.80687,-0.828338 -0.20172,-0.310626 -0.30258,-0.724795 -0.30258,-1.346049 0,-0.414169 0.10086,-0.724795 0.30258,-1.035422 0.20171,-0.310627 0.40343,-0.621253 0.80687,-0.93188 0.30258,-0.310627 0.80688,-0.517711 1.31118,-0.621254 0.50429,-0.103542 1.21031,-0.207084 1.91633,-0.207084 0.60516,0 1.10945,0 1.61375,0.103542 z m -24.10544,0 c 0.5043,0.103542 0.90773,0.103542 1.21031,0.207085 0.40344,0.103542 0.70602,0.207084 0.90774,0.207084 0.20172,0.103542 0.40344,0.103542 0.40344,0.103542 0.10086,0 0.20172,0 0.20172,-0.103542 0.10086,0 0.10086,-0.103542 0.20172,-0.103542 l 0.20172,0.103542 -0.80688,2.381471 -0.30258,-0.103542 v -0.207084 c 0,-0.207085 -0.10086,-0.310627 -0.30258,-0.517711 -0.20172,-0.103543 -0.5043,-0.310627 -0.80688,-0.414169 -0.30257,-0.103543 -0.70601,-0.207085 -1.10945,-0.207085 -0.40344,0 -0.80688,-0.103542 -1.10946,-0.103542 -0.40343,0 -0.90773,0.103542 -1.31117,0.207084 -0.40344,0.103543 -0.80688,0.310627 -1.10946,0.621254 -0.30258,0.310627 -0.60515,0.621253 -0.80687,1.035422 -0.20172,0.414169 -0.30258,0.93188 -0.30258,1.553134 0,0.621253 0.10086,1.035422 0.30258,1.449591 0.20172,0.414169 0.50429,0.724796 0.80687,1.035422 0.30258,0.310627 0.70602,0.414169 1.10946,0.621254 0.40344,0.103542 0.80688,0.207084 1.31117,0.207084 0.70602,0 1.21032,-0.103542 1.81548,-0.207084 0.50429,-0.103542 1.00859,-0.207085 1.31117,-0.414169 v -1.553134 h -2.31977 c -0.20172,0 -0.30258,0 -0.40344,0.103543 -0.10086,0.103542 -0.10086,0.207084 -0.20172,0.414169 h -0.30258 v -2.174387 h 0.30258 c 0,0.207084 0.10086,0.310626 0.20172,0.414169 0.084,0.08628 0.1681,0.100666 0.31052,0.103062 l 4.42988,4.8e-4 V 33.3406 c -0.20172,0 -0.40344,0.103542 -0.40344,0.103542 -0.10086,0 -0.10086,0.103542 -0.10086,0.310626 v 1.967303 c 0,0.103542 0,0.207084 0.10086,0.207084 0.10086,0 0.10086,0.103543 0.20172,0.103543 v 0.310626 c -0.40343,0.310627 -0.80687,0.517711 -1.21031,0.621254 -0.40344,0.207084 -0.80688,0.310626 -1.31118,0.414169 -0.40343,0.103542 -0.90773,0.207084 -1.31117,0.207084 h -1.31118 c -0.80687,0 -1.51289,-0.103542 -2.21891,-0.310627 -0.70601,-0.207084 -1.21031,-0.517711 -1.71461,-0.93188 -0.5043,-0.414169 -0.80688,-0.93188 -1.10946,-1.449591 -0.30257,-0.621253 -0.40343,-1.242507 -0.40343,-1.967302 0,-0.724796 0.10086,-1.449592 0.40343,-1.967303 0.30258,-0.621253 0.60516,-1.035422 1.10946,-1.449591 0.5043,-0.414169 1.0086,-0.724796 1.71461,-0.93188 0.70602,-0.207085 1.41204,-0.310627 2.21891,-0.310627 0.5043,0 1.0086,0 1.5129,0.103542 z m -40.4447,0 1.21031,0.310627 c 0.30258,0.103542 0.60516,0.207084 0.80688,0.310627 0.20172,0.103542 0.40344,0.103542 0.60516,0.103542 0.20172,0 0.30258,0 0.30258,-0.103542 l 0.20172,0.103542 -1.21032,2.174387 -0.20172,-0.103543 c 0,-0.207084 -0.10086,-0.310626 -0.10086,-0.414168 -0.10086,-0.103543 -0.20172,-0.310627 -0.50429,-0.414169 -0.20172,-0.103543 -0.5043,-0.207085 -0.80688,-0.414169 -0.30258,-0.103543 -0.60516,-0.207085 -0.90774,-0.207085 -0.24206,-0.08283 -0.54867,-0.0994 -0.81656,-0.102714 l -0.19203,-8.28e-4 c -0.30258,0 -0.5043,0 -0.80688,0.103542 -0.30258,0 -0.5043,0.103542 -0.70602,0.207085 -0.20172,0.103542 -0.40344,0.207084 -0.5043,0.310626 -0.10086,0.103543 -0.20172,0.310627 -0.20172,0.517712 0,0.310626 0.10086,0.517711 0.30258,0.621253 0.20172,0.103542 0.5043,0.207085 0.80688,0.310627 0.30258,0.103542 0.70602,0.103542 1.10946,0.103542 0.40343,0 0.90773,0.103542 1.31117,0.103542 0.40344,0 0.90774,0.103542 1.31117,0.207085 0.40344,0.103542 0.80688,0.207084 1.10946,0.414169 0.30258,0.207084 0.60516,0.414169 0.80688,0.828338 0.20172,0.310626 0.30258,0.724795 0.30258,1.242506 0,0.621254 -0.20172,1.138965 -0.5043,1.553134 -0.30258,0.414169 -0.70602,0.724795 -1.21032,0.93188 -0.5043,0.207084 -1.00859,0.414169 -1.51289,0.414169 -0.43226,0.08875 -0.93861,0.101429 -1.32853,0.10324 l -0.18437,3.02e-4 c -0.70601,0 -1.21031,0 -1.71461,-0.103542 -0.40344,-0.103542 -0.80688,-0.207085 -1.10945,-0.310627 -0.30258,-0.103542 -0.5043,-0.207084 -0.70602,-0.310627 -0.1681,-0.08629 -0.26616,-0.100666 -0.35254,-0.103062 l -0.0509,-4.8e-4 c -0.10086,0 -0.20172,0 -0.20172,0.103542 l -0.201718,-0.103542 0.605158,-2.070845 0.20172,0.103543 c 0,0.103542 0,0.207084 0.10086,0.310626 0.10086,0.103543 0.20172,0.310627 0.5043,0.414169 0.20172,0.103543 0.50429,0.207085 0.80687,0.414169 0.30258,0.103542 0.60516,0.207085 1.0086,0.207085 0.30258,0.103542 0.60516,0.103542 0.90774,0.103542 h 0.80687 c 0.30258,0 0.60516,-0.103542 0.90774,-0.207085 0.30258,-0.103542 0.60516,-0.207084 0.80688,-0.414168 0.20171,-0.207085 0.30257,-0.414169 0.30257,-0.621254 0,-0.310627 -0.10086,-0.517711 -0.30257,-0.621253 -0.20172,-0.103542 -0.5043,-0.207085 -0.80688,-0.310627 -0.30258,-0.103542 -0.70602,-0.103542 -1.10946,-0.103542 -0.40344,0 -0.90773,0 -1.31117,-0.103542 -0.40344,0 -0.90774,-0.103543 -1.31118,-0.207085 -0.40343,-0.103542 -0.80687,-0.207084 -1.10945,-0.414169 -0.30258,-0.207084 -0.60516,-0.414169 -0.80688,-0.828338 -0.201718,-0.310626 -0.302577,-0.724795 -0.302577,-1.346049 0,-0.414169 0.100859,-0.724795 0.302577,-1.035422 0.20172,-0.310627 0.40344,-0.621253 0.80688,-0.93188 0.30258,-0.310627 0.80687,-0.517711 1.31117,-0.621254 0.44126,-0.181199 1.03697,-0.203848 1.65197,-0.20668 l 0.26437,-4.04e-4 c 0.60515,0 1.10945,0 1.61375,0.103542 z m 13.21261,-0.414169 v 0.310627 c -0.10086,0 -0.20172,0 -0.20172,0.103542 -0.10086,0 -0.10086,0.103542 -0.10086,0.207085 0,0.103542 0,0.310626 0.10086,0.517711 0.10086,0.207084 0.20172,0.414169 0.40344,0.724796 l 2.21891,4.866485 2.21891,-4.762943 c 0.10086,-0.310627 0.30258,-0.621254 0.40344,-0.828338 0.10086,-0.207085 0.20172,-0.414169 0.20172,-0.517711 0,-0.207085 -0.20172,-0.310627 -0.5043,-0.310627 v -0.310627 h 3.02579 v 0.621254 h -0.20172 c -0.20172,0 -0.40344,0.103542 -0.5043,0.207084 -0.10086,0.207085 -0.20172,0.310627 -0.20172,0.414169 l -3.12665,6.833788 c -0.10086,0.207084 -0.20172,0.414169 -0.30258,0.517711 -0.10086,0.103542 -0.10086,0.207084 -0.10086,0.310626 v 0.103543 l 0.10086,0.103542 v 0.310627 H 119.8212 V 37.06812 c 0.10086,0 0.20172,-0.103542 0.20172,-0.207085 0,-0.103542 0,-0.207084 -0.10086,-0.414168 -0.10086,-0.207085 -0.20172,-0.414169 -0.30258,-0.724796 l -3.12664,-6.93733 c -0.10086,-0.103542 -0.10086,-0.207084 -0.20172,-0.310627 l -0.0914,-0.06148 -0.22063,-0.08413 c -0.0347,-0.01618 -0.0662,-0.03559 -0.0914,-0.06148 v -0.310627 z m -26.828657,2.692098 -1.613753,3.313352 h 3.126647 z m 64.550147,0 -1.61376,3.313352 h 3.12665 z M 174.18453,16.6703 c 1.00859,0 1.81547,0.828338 1.81547,1.86376 0,1.035422 -0.80688,1.86376 -1.81547,1.86376 -0.96275,0.09884 -1.74171,-0.651417 -1.81053,-1.71043 l -0.005,-0.15333 c 0,-1.035422 0.80688,-1.86376 1.81548,-1.86376 z M 73.627507,0.3106267 c 1.109456,0 2.218911,0.20708447 3.227507,0.51771118 0.201719,0 0.302579,0 0.302579,0.20708442 v 3.0027248 c 0,0.6212534 0,0.7247957 -0.302579,0.7247957 -0.302579,0 -0.302579,0 -0.302579,-0.5177112 C 76.451576,3.6239782 76.148997,3.0027248 75.745559,2.5885559 75.140401,1.760218 74.232665,1.2425068 73.224069,1.2425068 h -0.504298 c -1.412035,0 -2.62235,1.1389646 -2.62235,2.6920981 0,1.2425068 0.605158,2.0708447 2.62235,3.7275204 l 0.706017,0.6212535 c 3.025788,2.2779292 3.933524,4.0381472 3.933524,6.5231612 v 0.103542 c 0,1.86376 -0.907736,3.416893 -2.319771,4.348774 -1.109455,0.724795 -2.31977,1.138964 -3.731805,1.138964 h -0.605157 c -1.210315,0 -2.319771,-0.207084 -3.328367,-0.621253 l 0.10086,-0.207085 c -0.403439,0 -0.504298,-0.310626 -0.504298,-0.93188 v -3.313351 c 0,-0.414169 0,-0.621254 0.302578,-0.621254 0.302579,0 0.302579,0.207085 0.302579,0.414169 0,0.517711 0.10086,0.93188 0.201719,1.346049 0.403439,1.449592 1.714614,2.588556 3.328367,2.588556 h 0.706017 c 1.613754,0 2.924929,-1.346049 3.025788,-2.899182 0,-1.242507 -0.403438,-2.381472 -2.42063,-4.038148 l -1.109456,-0.93188 C 68.584527,9.0081744 67.676791,7.1444142 67.676791,5.1771117 c 0,-2.7956403 2.319771,-4.866485 5.748997,-4.866485 z m 29.854443,0 c 1.10945,0 2.21891,0.20708447 3.22751,0.51771118 0.20171,0 0.30257,0 0.30257,0.20708442 v 3.0027248 c 0,0.6212534 0,0.7247957 -0.30257,0.7247957 -0.30258,0 -0.30258,-0.1035423 -0.30258,-0.5177112 0,-0.6212534 -0.20172,-1.1389646 -0.5043,-1.6566757 -0.60516,-0.7247957 -1.5129,-1.2425068 -2.42063,-1.2425068 h -0.5043 c -1.41203,0 -2.62235,1.1389645 -2.62235,2.692098 0,1.2425069 0.5043,2.0708447 2.62235,3.7275205 l 0.60516,0.6212534 c 3.02579,2.277929 3.93352,4.038147 3.93352,6.523161 v 0.103542 c 0,1.86376 -0.90773,3.416894 -2.31977,4.348774 -1.00859,0.724796 -2.31977,1.035422 -3.7318,1.035422 h -0.70602 c -1.210316,0 -2.319772,-0.207084 -3.328368,-0.621253 l 0.20172,-0.207085 c -0.403439,0 -0.504298,-0.310626 -0.504298,-0.93188 v -3.313351 c 0,-0.414169 0,-0.621254 0.302578,-0.621254 0.302579,0 0.20172,0.207085 0.20172,0.414169 0,0.517711 0.100859,0.93188 0.201719,1.346049 0.403438,1.449592 1.714613,2.588556 3.328369,2.588556 h 0.60515 c 1.61376,0 2.92493,-1.242507 3.02579,-2.899182 0,-1.242507 -0.40344,-2.381472 -2.42063,-4.038148 l -1.10945,-0.93188 C 98.539828,9.0081744 97.531232,7.1444142 97.531232,5.1771117 c 0,-2.7956403 2.319771,-4.866485 5.748998,-4.866485 z M 35.09914,0.10354223 c 4.942121,0 8.976505,4.14168937 8.976505,9.21525887 v 0.7247959 c 0,5.59128 -4.437823,10.147139 -9.884241,10.147139 h -1.210315 c -5.244699,0 -9.480803,-4.348774 -9.480803,-9.73297 0.10086,0 0.10086,-0.103543 0.10086,-0.207085 v -0.207084 c 0,-5.3841965 4.236103,-9.83651253 9.581662,-9.83651253 h 0.907736 c 0.302579,0 0.706018,-0.10354224 1.008596,-0.10354224 z M 174.18453,16.877384 c -0.90774,0 -1.61376,0.724796 -1.61376,1.656676 0,0.93188 0.70602,1.656676 1.61376,1.656676 0.75941,0 1.42948,-0.642034 1.58977,-1.494482 l 0.024,-0.162194 c 0,-0.93188 -0.70602,-1.656676 -1.61375,-1.656676 z M 146.0447,0 c 4.94212,0 8.9765,4.1416894 8.9765,9.2152589 v 0.7247956 c 0,5.5912805 -4.43782,10.1471385 -9.88424,10.1471385 h -1.00859 c -5.15581,0.203575 -9.33692,-3.995582 -9.38135,-9.351388 l 0.001,-0.278039 V 9.9400545 c 0,-5.3841962 4.33697,-9.83651227 9.58167,-9.83651227 h 0.70601 C 145.33868,0.10354223 145.74212,0 146.0447,0 Z M 92.790831,0.72479564 V 4.0381471 c 0,0.2761127 0,0.3067918 -0.141674,0.3102006 l -0.06005,4.261e-4 c -0.179306,0 -0.199229,0 -0.201443,-0.218163 l -2.76e-4,-1.127886 C 92.185673,2.5885559 91.983954,2.2779292 90.672779,2.0708447 h -3.530086 v 7.0408719 h 3.933525 c 0.504298,0 0.907736,0 1.210315,-0.4141689 0.201719,-0.414169 0.302579,-0.3106267 0.403438,-0.3106267 0.10086,0 0,0.5177111 0,1.86376 v 1.656676 c 0,0.207084 0,0.517711 -0.201719,0.517711 0,0.207085 -0.201719,0.414169 -0.403438,0.414169 -0.201719,0 -0.403439,-0.207084 -0.403439,-0.414169 v -1.035422 c 0,-0.517711 -0.403438,-0.828338 -1.412034,-1.035423 h -3.530086 v 6.00545 c 0,1.760218 0.504298,2.174387 3.025788,2.174387 h 0.403438 c 0.706018,0 1.412035,-0.103542 2.017192,-0.414169 0.605158,-0.310627 0.907737,-0.828338 1.109456,-1.86376 0,-0.310627 0,-0.414169 0.302579,-0.414169 0.302578,0 0,0.207084 0,0.414169 0,1.035422 -0.10086,1.967302 -0.302579,3.002725 0,0.621253 -0.403439,0.621253 -1.311175,0.621253 h -9.9851 c -0.302579,0 -0.504298,0 -0.504298,-0.207085 0,-0.207084 0,-0.207084 0.403438,-0.207084 h 1.008596 c 0.504298,0 0.605158,-0.621253 0.706017,-1.346049 0.09246,-0.664396 0.01541,-2.72086 0.0019,-4.893329 l -0.0019,-0.594409 -0.302578,-4.659401 V 2.5885559 c 0,-0.8283379 -0.20172,-1.2425069 -1.008596,-1.4495913 h -1.008596 c -0.302579,0 -0.403439,0 -0.403439,-0.20708449 0,-0.19115489 0,-0.20585912 0.475973,-0.20699021 z M 54.968481,0.62125341 c 1.512894,0 2.924929,0.41416889 4.135244,1.13896459 1.008596,0.8283379 1.613753,2.0708447 1.613753,3.4168937 -0.100859,2.3814714 -1.412034,4.5558583 -3.227507,5.6948233 2.218911,2.899182 3.933525,5.177111 5.345559,6.730245 0.706017,0.828338 1.613754,1.449591 2.723209,1.760218 h 0.706017 c 0.20172,0 0.302579,0 0.302579,0.207084 0,0.189828 0,0.205647 -0.388438,0.206965 l -2.939929,1.2e-4 c -0.806876,0 -1.613753,-0.207085 -2.218911,-0.517711 -1.311175,-1.035423 -2.42063,-2.174387 -3.328367,-3.623979 v -0.103542 c -1.109455,-1.346049 -2.521489,-3.209809 -2.521489,-3.520436 h -2.72321 v 5.694823 c 0,1.138965 0.20172,1.242507 0.907737,1.346049 h 1.311175 c 0.176504,0 0.198567,0 0.201325,0.13873 l 3.94e-4,0.06836 c 0,0.189827 0,0.205646 -0.388438,0.206964 l -6.772594,1.2e-4 c -0.302579,0 -0.504298,0 -0.504298,-0.207084 0,-0.188259 0,-0.205373 0.303109,-0.206929 l 1.008066,-1.56e-4 c 0.504298,0 0.605158,-0.621253 0.706017,-1.346049 0.10086,-0.724796 0,-3.106267 0,-5.487738 l 0.10086,-4.245232 V 2.5885559 c 0,-0.8283379 -0.201719,-1.2425069 -1.109456,-1.4495913 -0.302579,-0.1035423 -0.605157,-0.1035423 -0.907736,-0.1035423 -0.201719,0 -0.403439,0 -0.403439,-0.20708442 0,-0.1911549 0,-0.20585912 0.475973,-0.20699022 z M 169.54499,0.72479564 C 169.44413,1.1389646 169.34327,1.760218 169.24241,2.2779292 v 1.7602179 c 0,0.2761127 0,0.3067918 -0.14168,0.3102006 l -0.06,4.261e-4 c -0.20172,0 -0.20172,0 -0.20172,-0.3106267 V 3.0027248 c 0,-0.4141689 -0.40344,-0.7247956 -1.71462,-0.9318801 h -3.53008 v 7.0408719 h 3.93352 c 0.60516,0 0.90774,0 1.21032,-0.4141689 0.20172,-0.414169 0.30258,-0.3106267 0.40344,-0.3106267 0.10086,0 0,0.5177111 0,1.86376 v 1.656676 c 0,0.207084 0,0.517711 -0.20172,0.517711 -0.17651,0 -0.19857,0 -0.20133,-0.13873 l -3.9e-4,-1.103777 c 0,-0.517711 -0.40344,-0.828338 -1.41204,-1.035422 h -3.42922 v 6.212534 c 0,1.760218 0.40344,2.174387 2.92493,2.174387 h 0.40343 c 0.70602,0 1.41204,-0.103542 2.0172,-0.414169 0.40343,-0.414169 0.60515,-0.93188 0.60515,-1.553134 v -0.310626 c 0,-0.310627 0,-0.414169 0.30258,-0.414169 0.30258,0 0.20172,0.207084 0.20172,0.414169 -0.10086,1.035422 -0.20172,2.070844 -0.30258,3.002725 0,0.485354 -0.35458,0.515688 -1.14686,0.517584 l -10.14941,1.27e-4 c -0.30258,0 -0.5043,0 -0.5043,-0.207085 0,-0.188258 0,-0.205373 0.30311,-0.206929 l 1.10892,-1.55e-4 c 0.5043,0 0.60516,-0.621254 0.70602,-1.346049 0.0294,-0.211399 0.0417,-0.56373 0.0443,-1.015889 l 4e-5,-0.411053 c -0.005,-1.083957 -0.0443,-2.572377 -0.0443,-4.060797 L 160.2659,7.972752 V 2.5885559 c 0,-0.8283379 -0.20172,-1.2425069 -1.10945,-1.4495913 h -1.0086 c -0.20172,0 -0.40344,0 -0.40344,-0.20708449 0,-0.18982743 0,-0.20564638 0.38844,-0.20696463 z m -51.4384,0 c 0.30258,0 0.5043,0 0.5043,0.20708447 0,0.18825859 0,0.20537299 -0.30311,0.20692889 l -0.80635,1.556e-4 c -0.70602,0 -0.90773,0.5177111 -0.90773,1.4495913 v 6.1089918 h 9.68252 V 2.5885559 c 0,-0.8283379 -0.30258,-1.2425069 -1.0086,-1.4495913 h -1.00859 c -0.30258,0 -0.40344,0 -0.40344,-0.20708449 0,-0.18982743 0,-0.20564638 0.38843,-0.20696463 l 6.87346,-1.1984e-4 c 0.40344,0 0.5043,0 0.5043,0.20708447 0,0.17257039 0,0.20133209 -0.29184,0.20612569 l -0.91848,9.588e-4 c -0.70602,0 -0.90774,0.5177111 -0.90774,1.4495913 -0.009,0.082225 -0.0162,0.162031 -0.0222,0.2418374 l -0.0102,0.1603292 c -0.0396,0.754891 0.0274,1.6502267 0.0321,4.652235 l 2.5e-4,10.1663065 c 0,1.138965 0.20172,1.242507 1.0086,1.346049 h 1.31118 c 0.30257,0 0.40343,0 0.40343,0.207085 0,0.184075 -0.15938,0.204528 -0.40731,0.2068 l -7.15716,2.84e-4 c -0.30257,0 -0.50429,0 -0.50429,-0.207084 0,-0.188259 0,-0.205373 0.30311,-0.206929 l 1.10892,-1.56e-4 c 0.5043,0 0.60516,-0.621253 0.70602,-1.346049 0.0883,-0.634196 0.0221,-2.536784 0.004,-4.597922 l -0.004,-0.592252 -5e-4,-2.368409 h -9.4808 v 2.070845 c 0,0.828338 -0.10086,1.760218 -0.10086,2.692098 0,1.035422 0,2.070845 0.10086,3.106267 v -0.103542 c 0,0.621253 0,1.138964 0.90773,1.242507 h 1.31118 c 0.30258,0 0.40344,0 0.40344,0.207084 0,0.207084 0,0.207084 -0.5043,0.207084 h -7.06017 c -0.40344,0 -0.5043,0 -0.5043,-0.207084 0,-0.207084 0,-0.207084 0.40344,-0.207084 h 0.90773 c 0.5043,0 0.60516,-0.621254 0.70602,-1.34605 0.0967,-0.694595 0.008,-2.910687 5e-4,-5.190174 l -5e-4,-10.1340761 c 0,-0.8283379 -0.20172,-1.2425069 -1.10946,-1.4495913 h -1.00859 c -0.20172,0 -0.40344,0 -0.40344,-0.20708449 0,-0.18982743 0,-0.20564638 0.38844,-0.20696463 z M 175.09226,18.016349 c 0,0.517711 -0.30258,0.621253 -0.60515,0.621253 l 0.60515,0.93188 h -0.30258 l -0.60515,-0.93188 h -0.30258 v 0.93188 h -0.30258 v -2.070844 h 0.80688 c 0.40343,0 0.70601,0 0.70601,0.517711 z M 33.283668,1.4495913 c -2.824069,0 -6.152436,1.6566757 -6.152436,8.0762943 0,5.3841964 2.924928,9.5258854 7.66533,9.5258854 1.714613,0 5.748997,-0.828338 5.748997,-8.076294 V 10.66485 c 0,-5.6948228 -3.227507,-9.2152587 -7.261891,-9.2152587 z m 111.046422,0 c -2.82407,0 -6.15244,1.6566757 -6.15244,8.0762943 0,5.3841964 2.82407,9.5258854 7.66533,9.5258854 1.71461,0 5.749,-0.828338 5.749,-8.076294 V 10.66485 c 0,-5.6948228 -3.22751,-9.2152587 -7.26189,-9.2152587 z m 29.9553,16.3596727 h -0.5043 v 0.517711 h 0.30258 c 0.20172,0 0.70601,0 0.70601,-0.310626 0,-0.310627 -0.30257,-0.207085 -0.50429,-0.207085 z M 53.657307,1.760218 h -0.706018 c -0.201719,0 -0.504298,0 -0.706017,0.1035422 -0.201719,0 -0.201719,0 -0.201719,0.3106267 l 0.201719,7.8692101 c 0,0.310626 0,0.414169 0.201719,0.414169 0.504298,0.207084 1.109456,0.310626 1.815473,0.310626 h 0.403439 c 0.504298,0 1.008596,-0.207084 1.412034,-0.517711 0.907736,-0.8283377 1.512894,-2.0708445 1.512894,-3.4168935 V 5.7983651 c 0,-2.2779291 -1.714613,-4.0381471 -3.933524,-4.0381471 z M 5.849,17.928 l 8.567e-4,-0.01519 c 0,0.621254 0.2017192,1.138965 0.9077364,1.242507 h 1.3111748 c 0.3025788,0 0.3025788,0 0.3025788,0.207085 0,0.184075 -0.1593831,0.204528 -0.4073123,0.2068 l -7.15715761,2.84e-4 c -0.3025788,0 -0.50429799,0 -0.50429799,-0.207084 0,-0.188259 0,-0.205373 0.30310923,-0.206929 l 1.00806557,-1.56e-4 c 0.504298,0 0.6051576,-0.621253 0.7060172,-1.346049 0.029417,-0.211398 0.041675,-0.56373 0.044279,-1.015888 l 4.37e-5,-0.411053 C 2.359169,15.298365 2.3197708,13.809945 2.3197708,12.321526 V 2.4850136 c 0,-0.8283379 -0.1008596,-1.2425068 -0.9077364,-1.4495913 C 1.1094556,0.93188011 0.90773639,0.93188011 0.60515759,0.93188011 H 0.4034384 c -0.36676218,0 -0.4001042,0 -0.40313529,-0.15558563 L 0,0.72479564 C 0,0.53364075 0,0.51893652 0.47597284,0.51780543 l 6.88677786,-9.426e-5 c 0.3025788,0 0.6051576,0.10354224 0.6051576,0.20708447 0,0.18825861 0,0.20537303 -0.3031092,0.20692888 l -0.8063464,1.5559e-4 c -0.6051576,0 -0.9077364,0.51771119 -0.9077364,1.44959129 V 8.4904632 L 15.330659,8.6975477 V 2.5885559 c 0,-0.8283379 -0.201719,-1.2425069 -1.008596,-1.4495913 h -1.008596 c -0.201719,0 -0.403438,0 -0.403438,-0.20708449 0,-0.18982743 0,-0.20564638 0.388437,-0.20696463 l 6.873454,-1.1984e-4 c 0.302579,0 0.504298,0 0.504298,0.20708447 0,0.18825859 0,0.20537299 -0.30311,0.20692889 l -0.705486,1.556e-4 c -0.706017,0 -0.907737,0.5177111 -0.907737,1.4495913 V 17.809264 c 0,1.138965 0.20172,1.242507 1.008596,1.346049 h 1.311175 c 0.201719,0 0.403439,0 0.403439,0.207085 0,0.184075 -0.159384,0.204528 -0.407313,0.2068 l -7.157157,2.84e-4 c -0.302579,0 -0.504298,0 -0.504298,-0.207084 0,-0.188259 0,-0.205373 0.303109,-0.206929 l 1.108925,-1.56e-4 c 0.504298,0 0.605158,-0.621253 0.706017,-1.346049 0.08825,-0.634196 0.02206,-2.536784 0.0041,-4.597922 l -0.0036,-0.592252 -5.04e-4,-2.368409 H 5.8498567 v 2.070845 c 0,0.828338 -0.1008596,1.656676 -0.1008596,2.588556 0,0.828338 0,1.656675 0.05164,2.485013 L 5.849,18.01 Z"
       id="path924"
       inkscape:connector-curvature="0" />
  </clipPath>
  <g
     clip-path="url(#a)"
     id="g943"
     transform="matrix(2.753304,0,0,2.7413793,-44.052864,-16.448276)">
    <g
       clip-path="url(#b-37)"
       transform="translate(16.49292,6)"
       id="g929">
      <path
         d="M 0,0 H 41.768867 V 57.71188 H 0 Z"
         id="path927"
         style="fill:url(#c-41)"
         inkscape:connector-curvature="0" />
    </g>
    <g
       clip-path="url(#d-38)"
       transform="translate(16.502159,6.115955)"
       id="g933">
      <path
         d="M 0,0 H 41.772666 V 57.479775 H 0 Z"
         id="path931"
         style="fill:url(#e-42)"
         inkscape:connector-curvature="0" />
    </g>
    <g
       clip-path="url(#f-39)"
       transform="translate(16,6.253677)"
       id="g937">
      <path
         d="M 0,0 H 42.645101 V 57.746323 H 0 Z"
         id="path935"
         style="fill:url(#g-43)"
         inkscape:connector-curvature="0" />
    </g>
    <g
       clip-path="url(#h-40)"
       transform="translate(67,24)"
       id="g941">
      <path
         d="M 0,0 H 176 V 38 H 0 Z"
         id="path939"
         style="fill:#000000"
         inkscape:connector-curvature="0" />
    </g>
  </g>
</svg>
